<?xml version="1.0" encoding="utf-8"?>
<!-- Generator: Adobe Illustrator 27.5.0, SVG Export Plug-In . SVG Version: 6.00 Build 0)  -->
<svg version="1.1" xmlns="http://www.w3.org/2000/svg" xmlns:xlink="http://www.w3.org/1999/xlink" x="0px" y="0px"
	 viewBox="0 0 500 500" style="enable-background:new 0 0 500 500;" xml:space="preserve">
<g id="OBJECTS">
	<g>
		<rect x="0.004" style="fill:#FFFFFF;" width="500" height="500"/>
	</g>
	<rect x="0.004" y="417.063" style="fill:#E9F1F4;" width="499.996" height="82.937"/>
	<g>
		<g id="XMLID_1625_">
			<path style="fill:#D6E4EA;" d="M124.086,208.541l-0.032-2.28c5.61-5.712,20.072-21.139,16.498-24.947
				c-4.41-4.698-16.593,22.691-16.593,22.691s3.46-12.262,0-13.995c-3.46-1.733-2.047,14.395-2.047,14.395
				c-2.047-4.932-15.935-23.591-19.541-15.061c-3.12,7.381,9.225,13.761,16.555,17.506l-0.023,1.691H95.774l-4.919,23.113h7.822
				l8.806,195.711h12.688h2.646h12.978l7.839-195.711l0,0h7.752l-3.406-23.113H124.086z"/>
		</g>
		<g>
			<g id="XMLID_300_">
				<g id="XMLID_348_">
					<g id="XMLID_356_">
						<polygon style="fill:#D6E4EA;" points="350.863,320.993 323.694,325.591 306.673,314.624 269.197,374.128 297.468,371.063 
							319.948,378.386 347.197,374.469 371.551,382.303 371.551,330.189 						"/>
					</g>
					<g id="XMLID_355_">
						<polygon style="fill:#D6E4EA;" points="436.429,314.624 419.408,325.591 392.239,320.993 371.551,330.189 371.551,382.303 
							395.905,374.469 423.154,378.386 445.634,371.063 473.905,374.128 						"/>
					</g>
					<g id="XMLID_354_">
						<polygon style="fill:#D6E4EA;" points="354.35,265.813 335.276,270.241 320.985,261.891 282.14,322.398 306.646,314.606 
							306.673,314.624 323.694,325.591 350.863,320.993 371.551,330.189 371.551,303.281 371.551,274.669 						"/>
					</g>
					<g id="XMLID_353_">
						<polygon style="fill:#D6E4EA;" points="422.118,261.891 407.826,270.241 388.752,265.813 371.551,274.669 371.551,303.281 
							371.551,330.189 392.239,320.993 419.408,325.591 436.429,314.624 436.456,314.606 460.962,322.398 						"/>
					</g>
					<g id="XMLID_352_">
						<polygon style="fill:#D6E4EA;" points="409.666,213.927 398.289,220.256 383.132,216.424 371.551,224.088 371.551,258.916 
							371.551,274.669 388.752,265.813 407.826,270.241 422.118,261.891 422.983,261.385 440.695,265.643 						"/>
					</g>
					<g id="XMLID_351_">
						<polygon style="fill:#D6E4EA;" points="359.97,216.424 344.813,220.256 333.436,213.927 302.407,265.643 320.119,261.385 
							320.985,261.891 335.276,270.241 354.35,265.813 371.551,274.669 371.551,258.916 371.551,224.088 						"/>
					</g>
					<g id="XMLID_350_">
						<polygon style="fill:#D6E4EA;" points="316.883,217.276 332.721,213.529 333.436,213.927 344.813,220.256 359.97,216.424 
							371.551,224.088 371.551,200.075 371.551,122.756 						"/>
					</g>
					<g id="XMLID_349_">
						<polygon style="fill:#D6E4EA;" points="371.551,122.756 371.551,200.075 371.551,224.088 383.132,216.424 398.289,220.256 
							409.666,213.927 410.381,213.529 426.22,217.276 						"/>
					</g>
				</g>
				<g id="XMLID_318_">
					<path style="fill:#FFFFFF;" d="M380.882,159.758c0-1.704,1.382-3.085,3.085-3.085c1.704,0,3.085,1.381,3.085,3.085
						c0,1.704-1.382,3.085-3.085,3.085C382.263,162.844,380.882,161.462,380.882,159.758z"/>
				</g>
				<g id="XMLID_317_">
					<path style="fill:#FFFFFF;" d="M354.27,251.156c0-1.704,1.382-3.085,3.085-3.085c1.704,0,3.085,1.381,3.085,3.085
						c0,1.704-1.382,3.085-3.085,3.085C355.652,254.241,354.27,252.86,354.27,251.156z"/>
				</g>
				<g id="XMLID_316_">
					<path style="fill:#FFFFFF;" d="M406.123,282.732c0-1.704,1.382-3.085,3.085-3.085c1.704,0,3.086,1.382,3.086,3.085
						c0,1.704-1.382,3.086-3.086,3.086C407.505,285.817,406.123,284.436,406.123,282.732z"/>
				</g>
				<g id="XMLID_315_">
					<path style="fill:#FFFFFF;" d="M428.607,329.015c0-1.704,1.382-3.085,3.086-3.085c1.704,0,3.085,1.381,3.085,3.085
						c0,1.704-1.382,3.085-3.085,3.085C429.989,332.1,428.607,330.719,428.607,329.015z"/>
				</g>
				<g id="XMLID_314_">
					<path style="fill:#FFFFFF;" d="M354.888,368.389c0-1.363,1.105-2.468,2.468-2.468c1.363,0,2.468,1.105,2.468,2.468
						c0,1.363-1.105,2.468-2.468,2.468C355.993,370.857,354.888,369.753,354.888,368.389z"/>
				</g>
				<g id="XMLID_313_">
					<path style="fill:#FFFFFF;" d="M349.128,181.892c0-2.272,1.842-4.114,4.114-4.114c2.272,0,4.114,1.842,4.114,4.114
						c0,2.272-1.842,4.114-4.114,4.114C350.97,186.006,349.128,184.164,349.128,181.892z"/>
				</g>
				<g id="XMLID_312_">
					<path style="fill:#FFFFFF;" d="M338.722,228.202c0-2.272,1.842-4.114,4.114-4.114c2.272,0,4.114,1.842,4.114,4.114
						c0,2.272-1.842,4.114-4.114,4.114C340.563,232.316,338.722,230.474,338.722,228.202z"/>
				</g>
				<g id="XMLID_311_">
					<path style="fill:#FFFFFF;" d="M389.127,305.342c0-2.272,1.842-4.114,4.114-4.114c2.272,0,4.114,1.842,4.114,4.114
						c0,2.272-1.842,4.114-4.114,4.114C390.969,309.456,389.127,307.614,389.127,305.342z"/>
				</g>
				<g id="XMLID_310_">
					<path style="fill:#FFFFFF;" d="M414.501,364.276c0-2.272,1.842-4.114,4.114-4.114c2.272,0,4.114,1.842,4.114,4.114
						c0,2.272-1.842,4.114-4.114,4.114C416.342,368.389,414.501,366.548,414.501,364.276z"/>
				</g>
				<g id="XMLID_309_">
					<circle style="fill:#FFFFFF;" cx="393.241" cy="199.895" r="5.739"/>
				</g>
				<g id="XMLID_308_">
					<path style="fill:#FFFFFF;" d="M326.846,303.558c0-3.17,2.57-5.739,5.739-5.739c3.17,0,5.739,2.569,5.739,5.739
						c0,3.169-2.569,5.739-5.739,5.739C329.415,309.297,326.846,306.727,326.846,303.558z"/>
				</g>
				<g id="XMLID_307_">
					<path style="fill:#FFFFFF;" d="M314.635,336.664c0-3.169,2.57-5.739,5.739-5.739s5.739,2.569,5.739,5.739
						c0,3.169-2.57,5.739-5.739,5.739S314.635,339.834,314.635,336.664z"/>
				</g>
				<g id="XMLID_306_">
					<path style="fill:#FFFFFF;" d="M393.146,251.156c0-3.17,2.569-5.739,5.739-5.739c3.169,0,5.739,2.569,5.739,5.739
						c0,3.169-2.57,5.739-5.739,5.739C395.716,256.895,393.146,254.325,393.146,251.156z"/>
				</g>
				<g>
					<polygon style="fill:#E9F1F4;" points="396.572,110.003 377.458,110.003 371.551,91.825 371.551,91.825 365.645,110.003 
						365.644,110.003 346.53,110.003 346.53,110.004 361.994,121.239 361.994,121.239 356.087,139.417 356.087,139.417 
						371.551,128.182 371.551,128.182 387.015,139.417 387.015,139.417 381.108,121.239 381.108,121.239 396.572,110.004 					"/>
				</g>
				<g id="XMLID_301_">
					<g id="XMLID_305_">
						<path style="fill:#E9F1F4;" d="M401.276,174.149c-21.301-2.487-39.545-7.095-52.915-11.297l-3.158,5.461
							c14.73,4.706,35.516,10.004,59.904,12.46L401.276,174.149z"/>
					</g>
					<g id="XMLID_304_">
						<path style="fill:#E9F1F4;" d="M415.345,223.392c-21.411,7.245-56.663,16.732-98.863,18.791l-3.795,6.325
							c45.514-1.697,83.505-12.046,105.897-19.717L415.345,223.392z"/>
					</g>
					<g id="XMLID_303_">
						<path style="fill:#E9F1F4;" d="M444.365,296.545c-53.972-2.538-105.798-12.94-133.245-19.287l-3.539,5.512
							c27.793,6.51,83.425,17.885,140.863,20.129L444.365,296.545z"/>
					</g>
					<g id="XMLID_302_">
						<path style="fill:#E9F1F4;" d="M450.151,336.412c-25.966,6.42-84.499,18.06-168.856,18.507l-3.892,6.18
							c89.098-0.112,150.459-12.703,176.204-19.2L450.151,336.412z"/>
					</g>
				</g>
			</g>
			<g>
				<path style="fill:#D6E4EA;" d="M389.39,376.565v-6.183h-17.839h-0.043H353.67v6.243l-0.043-0.059c0,0-1.905,29.196-4.862,48.993
					c0,0,9.876,2.314,22.743,2.314c12.867,0,22.743-2.314,22.743-2.314C391.295,405.761,389.39,376.565,389.39,376.565z"/>
			</g>
		</g>
		<g>
			<g id="XMLID_1_">
				<path style="fill:#E9F1F4;" d="M428.546,390.927h-11.872l-0.016-0.82c2.788-2.055,9.973-7.605,8.197-8.975
					c-2.191-1.69-8.244,8.163-8.244,8.163s1.719-4.411,0-5.034c-1.719-0.623-1.017,5.178-1.017,5.178
					c-1.017-1.774-7.917-8.487-9.709-5.418c-1.55,2.655,4.583,4.951,8.225,6.298l-0.012,0.608h-33.303l-2.444,8.315h4.286
					l3.975,28.124h28.116h1.315h6.448l3.538-28.124h4.208L428.546,390.927z"/>
			</g>
			<g>
				<g id="XMLID_1634_">
					<path style="fill:#E9F1F4;" d="M78.77,369.847l2.568-12.619h34.808l0.025-1.275c-4.258-3.142-15.085-11.517-12.398-13.59
						c3.325-2.565,12.511,12.389,12.511,12.389s-2.609-6.695,0-7.641c2.609-0.946,1.543,7.859,1.543,7.859
						c1.543-2.692,12.015-12.88,14.734-8.223c2.347,4.019-6.908,7.495-12.441,9.542l0.018,0.939h33.666l3.709,12.619h-6.259
						l-2.219,20.325l0,0l0,0.004l-4.06,37.19h-25.646h-2.378H90.526l-4.259-43.833l-0.001-0.007l0,0l-1.329-13.678H78.77z"/>
				</g>
				<g id="XMLID_1633_">
					<path style="fill:#E9F1F4;" d="M27.322,368.044H46.65l0.026-1.335c-4.538-3.345-16.235-12.38-13.344-14.61
						c3.567-2.752,13.421,13.289,13.421,13.289s-2.799-7.181,0-8.196c2.799-1.015,1.655,8.43,1.655,8.43
						c1.655-2.888,12.889-13.816,15.806-8.82c2.524,4.323-7.461,8.059-13.39,10.252l0.019,0.99h54.217l3.979,13.536h-6.978
						l-6.471,45.785H49.816h-2.14H37.179l-5.76-45.785h-6.851L27.322,368.044z"/>
				</g>
				<g id="XMLID_1631_">
					<path style="fill:#E9F1F4;" d="M189.595,350.391v-0.27c2.348-2.134,8.557-8.039,7.033-9.491
						c-1.869-1.78-7.033,8.599-7.033,8.599s1.466-4.647,0-5.303c-1.467-0.657-0.868,5.455-0.868,5.455
						c-0.868-1.869-6.754-8.94-8.283-5.707c-1.349,2.853,4.121,5.311,7.2,6.718h-15.132h-1.9v10.91h2.246l2.092,66.064h13.179h1.198
						h13.178l2.092-66.064l0,0h2.246v-10.91h-1.9H189.595z"/>
				</g>
			</g>
		</g>
	</g>
</g>
<g id="BACKGROUND">
	<g>
		<defs>
			<rect id="SVGID_1_" x="0.004" width="500" height="500"/>
		</defs>
		<clipPath id="SVGID_00000076569779483113596960000015139109580717144449_">
			<use xlink:href="#SVGID_1_"  style="overflow:visible;"/>
		</clipPath>
		<g style="clip-path:url(#SVGID_00000076569779483113596960000015139109580717144449_);">
			<g>
				<g>
					<g>
						<polygon style="fill:#001E33;" points="316.98,343.094 249.767,343.094 249.767,343.094 183.645,343.094 135.623,758.398 
							235.372,758.398 247.211,434.348 252.942,435.209 265.343,758.397 364.399,758.397 						"/>
					</g>
					<g>
						<path style="fill:#001E33;" d="M318.945,391.326c-11.454,0-20.281-3.198-26.234-9.507c-8.685-9.202-8.074-21.573-8.044-22.095
							l1.498,0.086c-0.007,0.122-0.594,12.271,7.648,20.991c5.658,5.988,14.114,9.024,25.132,9.024V391.326z"/>
					</g>
					<g>
						<path style="fill:#001E33;" d="M179.622,391.326v-1.5c11.025,0,19.484-3.04,25.142-9.036
							c8.246-8.736,7.645-20.857,7.638-20.98l1.497-0.086c0.03,0.521,0.641,12.894-8.044,22.096
							C199.902,388.128,191.076,391.326,179.622,391.326z"/>
					</g>
				</g>
				<g>
					
						<rect x="249.797" y="424.362" transform="matrix(0.1486 -0.9889 0.9889 0.1486 -216.8815 617.7156)" style="fill:#003454;" width="0.999" height="20.898"/>
				</g>
				<g>
					<g>
						<path style="fill:#1358BC;" d="M225.622,159.24c1.585-1.417,5.846-2.919,5.846-2.919v5.31L225.622,159.24z"/>
					</g>
					<g>
						<path style="fill:#1358BC;" d="M276.603,159.24c-1.584-1.417-5.846-2.919-5.846-2.919v5.31L276.603,159.24z"/>
					</g>
				</g>
				<g>
					<polygon style="fill:#AF685A;" points="269.785,146.615 271.901,178.067 230.132,178.067 232.443,146.615 					"/>
				</g>
				<g>
					<path style="fill:#1358BC;" d="M281.556,177.427c0.001-0.007,0.004-0.025,0.004-0.025l-30.208-4.096l-31.112,3.914
						c0,0,0.003,0.016,0.004,0.021c-35.46,3.14-51.025,36.151-46.473,73.379l7.843,106.01h68.311h69.02l9.588-106.01
						C333.003,214.067,315.947,181.566,281.556,177.427z"/>
				</g>
				<g>
					<g>
						<path style="fill:#AF685A;" d="M295.128,120.768c-2.008,5.634-7.326,8.744-11.879,6.946
							c-4.553-1.799-6.617-7.824-4.609-13.459c2.007-5.634,7.326-8.744,11.879-6.946
							C295.072,109.108,297.135,115.133,295.128,120.768z"/>
					</g>
					<g>
						<path style="fill:#001E33;" d="M291.841,121.561l-0.959-0.282c0.017-0.06,1.69-5.989-2.353-9.171l0.619-0.786
							C293.727,114.926,291.92,121.291,291.841,121.561z"/>
					</g>
					<g>
						<path style="fill:#AF685A;" d="M207.779,120.768c2.007,5.634,7.326,8.744,11.879,6.946c4.553-1.799,6.617-7.824,4.609-13.459
							c-2.007-5.634-7.326-8.744-11.879-6.946C207.835,109.108,205.772,115.133,207.779,120.768z"/>
					</g>
					<g>
						<path style="fill:#001E33;" d="M210.361,121.561c-0.08-0.269-1.887-6.634,2.693-10.239l0.618,0.786
							c-4.043,3.182-2.369,9.112-2.352,9.171L210.361,121.561z"/>
					</g>
					<g>
						<path style="fill:#AF685A;" d="M288.048,105.741c0.018-0.159,0.042-0.317,0.058-0.477l0.004-0.035h-0.002
							c0.119-1.203,0.182-2.423,0.182-3.658c0-20.28-16.44-36.72-36.72-36.72c-20.28,0-36.72,16.44-36.72,36.72
							c0,1.235,0.063,2.455,0.182,3.658h-0.001l0.004,0.035c0.016,0.155,0.038,0.308,0.056,0.463l3.802,31.61
							c0.006,0.065,0.016,0.129,0.023,0.195l0.091,0.759l0.005,0c2.101,16.113,15.872,28.559,32.557,28.559
							c16.508,0,30.167-12.18,32.492-28.042h0.003l0.047-0.389c0.054-0.402,0.107-0.805,0.146-1.212L288.048,105.741z"/>
					</g>
					<g>
						<path style="fill:#001E33;" d="M251.62,64.39c0,0-35.371-0.578-36.692,35.633c-0.123,3.379,0.132,6.76,0.618,10.106
							l1.299,8.94c0,0,8.371-8.204,12.556-21.164h22.22h22.22c4.185,12.96,12.556,21.164,12.556,21.164l1.299-8.94
							c0.486-3.345,0.741-6.727,0.618-10.105C286.991,63.812,251.62,64.39,251.62,64.39z"/>
					</g>
					<g>
						<path style="fill:#001E33;" d="M288.094,106.802c8.843-21.697,10.359-33.444-10.863-37.434c0,0-18.625-13.628-43.831-12.558
							c-25.206,1.07-13.953,12.32-13.953,12.32s-27.099,5.743-2.616,26.633l37.928-15.576l26.276,9.75L288.094,106.802z"/>
					</g>
					<g>
						<polygon style="fill:#001E33;" points="215.144,106.799 213.026,85.301 220.636,90.83 						"/>
					</g>
					<g>
						<g>
							<path style="fill:#001E33;" d="M252.079,136.852c-2.222-0.16-3.678-0.96-4.327-2.379c-1.569-3.427,2.46-8.991,2.925-9.614
								l1.203,0.896c-1.114,1.497-3.783,5.869-2.764,8.094c0.404,0.882,1.437,1.39,3.07,1.507L252.079,136.852z"/>
						</g>
						<g>
							
								<rect x="267.525" y="105.407" transform="matrix(0.224 -0.9746 0.9746 0.224 100.1374 349.4678)" style="fill:#001E33;" width="4" height="12.886"/>
						</g>
						<g>
							
								<rect x="227.371" y="109.85" transform="matrix(0.9746 -0.2241 0.2241 0.9746 -19.1195 55.2453)" style="fill:#001E33;" width="12.886" height="4"/>
						</g>
						<g>
							<circle style="fill:#001E33;" cx="236.043" cy="122.059" r="2.229"/>
						</g>
						<g>
							<circle style="fill:#001E33;" cx="267.296" cy="122.059" r="2.229"/>
						</g>
					</g>
					<g>
						<g>
							<path style="fill:#001E33;" d="M261.698,145.035c0.739-1.844,0.944-3.277,0.944-3.277l-20.558,3.505
								c0,0,1.628,5.644,6.229,7.334C251.656,145.476,258.78,144.936,261.698,145.035z"/>
						</g>
						<g>
							<path style="fill:#FF92A4;" d="M248.313,152.597c1.329,0.488,2.903,0.649,4.761,0.245c5.039-1.094,7.479-4.948,8.625-7.807
								C258.78,144.936,251.656,145.476,248.313,152.597z"/>
						</g>
					</g>
				</g>
				<g>
					<path style="fill:#1358BC;" d="M223.932,162.382c0.291-2.747,2.866-4.664,5.578-4.134c4.751,0.929,6.955,4.48,21.557,4.48
						c14.597,0,16.893-3.569,21.611-4.501c2.662-0.526,5.21,1.316,5.569,4.006l1.627,12.204c0.492,3.688-1.726,7.183-5.264,8.334
						c-5.052,1.644-13.106,3.52-23.543,3.52c-10.895,0-18.954-2.489-23.754-4.546c-3.096-1.327-4.952-4.52-4.598-7.869
						L223.932,162.382z"/>
				</g>
				<g>
					<g>
						<g>
							
								<rect x="220.733" y="169.451" transform="matrix(0.088 -0.9961 0.9961 0.088 37.6755 381.1562)" style="fill:#00479B;" width="12.505" height="1.106"/>
						</g>
					</g>
					<g>
						<g>
							
								<rect x="224.842" y="171.511" transform="matrix(0.0753 -0.9972 0.9972 0.0753 43.185 390.6973)" style="fill:#00479B;" width="14.819" height="1.106"/>
						</g>
					</g>
					<g>
						<g>
							
								<rect x="231.259" y="173.247" transform="matrix(0.0733 -0.9973 0.9973 0.0733 48.0393 399.3018)" style="fill:#00479B;" width="15.261" height="1.106"/>
						</g>
					</g>
					<g>
						<g>
							
								<rect x="239.307" y="174.005" transform="matrix(0.0587 -0.9983 0.9983 0.0587 58.3008 410.9452)" style="fill:#00479B;" width="15.499" height="1.106"/>
						</g>
					</g>
					<g>
						<g>
							
								<rect x="275.088" y="163.751" transform="matrix(0.9961 -0.088 0.088 0.9961 -13.8851 24.9043)" style="fill:#00479B;" width="1.106" height="12.505"/>
						</g>
					</g>
					<g>
						<g>
							
								<rect x="269.822" y="164.654" transform="matrix(0.9972 -0.0753 0.0753 0.9972 -12.1898 20.8497)" style="fill:#00479B;" width="1.106" height="14.819"/>
						</g>
					</g>
					<g>
						<g>
							
								<rect x="263.185" y="166.17" transform="matrix(0.9973 -0.0733 0.0733 0.9973 -12.0345 19.8075)" style="fill:#00479B;" width="1.106" height="15.261"/>
						</g>
					</g>
					<g>
						<g>
							
								<rect x="255.325" y="166.809" transform="matrix(0.9983 -0.0587 0.0587 0.9983 -9.8021 15.3156)" style="fill:#00479B;" width="1.106" height="15.499"/>
						</g>
					</g>
				</g>
				<g>
					<path style="fill:#001E33;" d="M251.57,187.039c-13.87,0-20.575-2.893-24.177-4.447c-4.128-1.78-5.092-5.379-5.131-5.532
						l1.452-0.376c0.033,0.124,0.844,3.051,4.273,4.53c3.503,1.511,10.023,4.324,23.583,4.324c13.906,0,20.904-2.553,23.268-3.65
						c3.048-1.415,4.044-3.974,4.171-4.84l1.484,0.217c-0.198,1.355-1.503,4.35-5.024,5.984
						C273.016,184.389,265.776,187.039,251.57,187.039z"/>
				</g>
				<g>
					<g>
						<g>
							<g>
								<path style="fill:#1358BC;" d="M404.141,270.433c-4.586-4.166-9.844-6.127-9.844-6.127s-0.467-3.732-2.297-9.148
									c-3.053-9.036-11.766-20.627-18.46-27.421c-19.315-19.604-47.832-38.819-85.248-49.088c0,0-2.176,16.653,17.837,58.497
									c5.243,10.962,12.609,22.373,20.626,33.246c10.359,13.369,25.823,24.048,37.646,26.959c0,0,3.221,21.483,19.928,12.946
									c0,0,3.832-1.221,12.198-9.153c4.547-4.31,8.569-9.583,10.149-15.604C408.882,277.128,408.581,274.467,404.141,270.433z"/>
							</g>
						</g>
						<g>
							<path style="fill:#001E33;" d="M365.143,297.448l-1.488-0.192c0.035-0.272,3.825-27.335,30.468-33.68l0.348,1.459
								C368.852,271.136,365.177,297.185,365.143,297.448z"/>
						</g>
						<g>
							<g>
								<g>
									<path style="fill:#00479B;" d="M403.681,279.764c-4.721-8.24-11.521-11.218-11.59-11.247l0.376-0.883
										c0.291,0.123,7.157,3.119,12.046,11.652L403.681,279.764z"/>
								</g>
							</g>
							<g>
								<g>
									<path style="fill:#00479B;" d="M381.641,308.391c-11.844-1.943-13.659-11.755-13.676-11.853l0.947-0.163
										c0.065,0.376,1.735,9.24,12.885,11.069L381.641,308.391z"/>
								</g>
							</g>
							<g>
								<g>
									<path style="fill:#00479B;" d="M385.664,301.826c-10.874-3.565-14.927-10.389-15.094-10.677l0.831-0.482
										c0.039,0.068,4.058,6.804,14.561,10.246L385.664,301.826z"/>
								</g>
							</g>
							<g>
								<g>
									<path style="fill:#00479B;" d="M391.457,295.356c-6.96-2.781-12.592-6.649-16.29-11.183l0.745-0.608
										c3.595,4.409,9.094,8.178,15.902,10.9L391.457,295.356z"/>
								</g>
							</g>
							<g>
								<g>
									<path style="fill:#00479B;" d="M395.718,289.855c-6.165-7.193-14.657-11.673-14.742-11.717l0.445-0.851
										c0.086,0.045,8.742,4.612,15.027,11.944L395.718,289.855z"/>
								</g>
							</g>
							<g>
								<g>
									<path style="fill:#00479B;" d="M400.361,284.28c-6.313-9.283-12.814-11.819-12.879-11.843l0.337-0.898
										c0.276,0.103,6.836,2.643,13.335,12.201L400.361,284.28z"/>
								</g>
							</g>
						</g>
						<g>
							<path style="fill:#00479B;" d="M379.088,312.127c0,0-7.004-10.992,3.88-22.271c10.884-11.28,26.647-16.156,26.647-16.156
								L379.088,312.127z"/>
						</g>
						<g>
							<g>
								<path style="fill:#AF685A;" d="M388.333,292.911c4.662-4.884,9.118-9.965,13.437-15.154
									c4.565-5.484,10.434-11.162,14.704-10.426c5.596,0.965,0.529,14.57-2.555,22.945c-2.646,7.185-1.027,9.558,2.278,11.421
									c9.509,5.359,28.982,15.534,27.139,20.786c-2.335,6.651-22.713-1.283-22.713-1.283s22.835,11.917,21.209,19.435
									c-1.732,8.009-27.638-7.792-27.638-7.792s21.125,16.331,18.076,22.939c-3.049,6.608-25.263-13.165-25.263-13.165
									s11.441,17.008,6.694,20.605c-4.087,3.097-22.31-16.628-30.901-34.504c-8.591-17.876,0.416-29.654,0.416-29.654
									S385.189,296.204,388.333,292.911z"/>
							</g>
							<g>
								<g>
									<path style="fill:#001E33;" d="M391.387,313.404c-1.882,0-3.046-0.253-3.082-0.262l0.225-0.975
										c0.11,0.024,11.315,2.432,20.706-8.56l0.76,0.65C403.244,312.161,395.555,313.404,391.387,313.404z"/>
								</g>
								<g>
									<path style="fill:#001E33;" d="M393.299,327.176l-0.938-0.346c3.166-8.576,2.242-14.08,2.232-14.135l0.984-0.177
										C395.62,312.751,396.568,318.32,393.299,327.176z"/>
								</g>
							</g>
						</g>
					</g>
					<g>
						<g>
							<g>
								<path style="fill:#1358BC;" d="M95.882,270.433c4.586-4.166,9.844-6.127,9.844-6.127s0.467-3.732,2.297-9.148
									c3.053-9.036,11.766-20.627,18.46-27.421c19.315-19.604,47.832-38.819,85.248-49.088c0,0,2.176,16.653-17.836,58.497
									c-5.243,10.962-12.61,22.373-20.626,33.246c-10.359,13.369-25.823,24.048-37.646,26.959c0,0-3.221,21.483-19.928,12.946
									c0,0-3.832-1.221-12.198-9.153c-4.546-4.31-8.569-9.583-10.149-15.604C91.14,277.128,91.441,274.467,95.882,270.433z"/>
							</g>
						</g>
						<g>
							<path style="fill:#001E33;" d="M134.88,297.448c-0.034-0.263-3.708-26.313-29.328-32.413l0.348-1.459
								c26.644,6.345,30.432,33.407,30.467,33.68L134.88,297.448z"/>
						</g>
						<g>
							<g>
								<g>
									<path style="fill:#00479B;" d="M96.341,279.764c4.721-8.24,11.521-11.218,11.59-11.247l-0.376-0.883
										c-0.291,0.123-7.157,3.119-12.047,11.652L96.341,279.764z"/>
								</g>
							</g>
							<g>
								<g>
									<path style="fill:#00479B;" d="M118.381,308.391c11.844-1.943,13.659-11.755,13.676-11.853l-0.947-0.163
										c-0.065,0.376-1.735,9.24-12.885,11.069L118.381,308.391z"/>
								</g>
							</g>
							<g>
								<g>
									<path style="fill:#00479B;" d="M114.358,301.826c10.874-3.565,14.927-10.389,15.094-10.677l-0.831-0.482
										c-0.039,0.068-4.058,6.804-14.561,10.246L114.358,301.826z"/>
								</g>
							</g>
							<g>
								<g>
									<path style="fill:#00479B;" d="M108.565,295.356c6.96-2.781,12.592-6.649,16.29-11.183l-0.744-0.608
										c-3.595,4.409-9.094,8.178-15.902,10.9L108.565,295.356z"/>
								</g>
							</g>
							<g>
								<g>
									<path style="fill:#00479B;" d="M104.304,289.855c6.165-7.193,14.657-11.673,14.742-11.717l-0.444-0.851
										c-0.086,0.045-8.742,4.612-15.027,11.944L104.304,289.855z"/>
								</g>
							</g>
							<g>
								<g>
									<path style="fill:#00479B;" d="M99.661,284.28c6.313-9.283,12.814-11.819,12.879-11.843l-0.338-0.898
										c-0.276,0.103-6.836,2.643-13.335,12.201L99.661,284.28z"/>
								</g>
							</g>
						</g>
						<g>
							<path style="fill:#00479B;" d="M120.934,312.127c0,0,7.004-10.992-3.88-22.271c-10.884-11.28-26.647-16.156-26.647-16.156
								L120.934,312.127z"/>
						</g>
						<g>
							<g>
								<path style="fill:#AF685A;" d="M111.69,292.911c-4.662-4.884-9.118-9.965-13.437-15.154
									c-4.565-5.484-10.435-11.162-14.704-10.426c-5.596,0.965-0.529,14.57,2.555,22.945c2.646,7.185,1.027,9.558-2.278,11.421
									c-9.509,5.359-28.982,15.534-27.139,20.786c2.335,6.651,22.713-1.283,22.713-1.283s-22.835,11.917-21.209,19.435
									c1.732,8.009,27.638-7.792,27.638-7.792s-21.125,16.331-18.076,22.939c3.049,6.608,25.263-13.165,25.263-13.165
									s-11.441,17.008-6.694,20.605c4.087,3.097,22.31-16.628,30.901-34.504c8.591-17.876-0.416-29.654-0.416-29.654
									S114.833,296.204,111.69,292.911z"/>
							</g>
							<g>
								<g>
									<path style="fill:#001E33;" d="M108.635,313.404c-4.168,0-11.856-1.243-18.609-9.146l0.761-0.65
										c9.409,11.014,20.593,8.585,20.706,8.56l0.225,0.975C111.681,313.151,110.516,313.404,108.635,313.404z"/>
								</g>
								<g>
									<path style="fill:#001E33;" d="M106.723,327.176c-3.269-8.855-2.321-14.425-2.279-14.657l0.984,0.177
										c-0.01,0.055-0.933,5.559,2.233,14.135L106.723,327.176z"/>
								</g>
							</g>
						</g>
					</g>
					<g>
						<path style="fill:#003A8E;" d="M184.998,253.571c0,0-2.256,26.775-7.575,46.413l-2.75-31.51
							C174.673,268.474,181.148,260.451,184.998,253.571z"/>
					</g>
					<g>
						<path style="fill:#003A8E;" d="M316.428,255.413c0,0,2.256,26.775,7.575,46.413l2.75-31.51
							C326.753,270.315,320.278,262.292,316.428,255.413z"/>
					</g>
					<g>
						<g>
							<path style="fill:#001E33;" d="M175.625,268.433l-1.145-0.969c6.363-7.533,11.314-16.55,15.454-24.411l1.327,0.699
								C187.084,251.683,182.086,260.784,175.625,268.433z"/>
						</g>
						<g>
							<path style="fill:#001E33;" d="M198.421,216.259l-1.5-0.023c0.152-9.741,0.381-24.46-10.493-27.942l0.457-1.429
								C198.819,190.686,198.58,206.075,198.421,216.259z"/>
						</g>
					</g>
					<g>
						<g>
							<path style="fill:#001E33;" d="M326.18,270.877c-7.883-9.331-15.378-23.121-17.486-27.125l1.326-0.699
								c2.092,3.97,9.521,17.641,17.307,26.855L326.18,270.877z"/>
						</g>
						<g>
							<path style="fill:#001E33;" d="M302.969,214.762l-1.5-0.046l0.031-1.047c0.266-9.234,0.667-23.19,11.56-26.801l0.473,1.424
								c-9.897,3.281-10.28,16.604-10.534,25.421L302.969,214.762z"/>
						</g>
					</g>
				</g>
			</g>
		</g>
	</g>
	<g>
		<g>
			<g>
				<polygon style="fill:#A6D0E8;" points="135.824,423.054 360.955,423.054 367.326,272.139 131.576,272.139 				"/>
			</g>
			<g>
				<polygon style="fill:#7FB3D6;" points="173.629,225.01 131.576,272.139 367.326,272.139 327.822,225.01 				"/>
			</g>
		</g>
		<polygon style="fill:#001E33;" points="235.726,225.01 223.317,272.139 275.585,272.139 264.68,225.01 		"/>
		<polygon style="fill:#003454;" points="227.077,423.054 269.569,423.054 275.585,272.139 223.317,272.139 		"/>
		<polygon style="fill:#001E33;" points="148.401,253.283 160.414,239.819 340.47,240.098 352.671,254.655 		"/>
		<path style="fill:#001E33;" d="M226.866,258.658c12.609-1.936,22.585-7.952,22.585-7.952s9.002,6.63,23.015,7.952l-23.015,6.086
			L226.866,258.658z"/>
		<path style="fill:#001E33;" d="M257.285,252.043c0,0,18.414,8.9,22.927,34.658c4.512,25.758-0.752,49.448,15.981,65.806
			l7.897-18.426h22.374c0,0-9.401-10.153-13.772-42.106c-3.385-24.746-14.932-34.209-42.132-41.269L257.285,252.043z"/>
		<path style="fill:#001E33;" d="M243.148,252.354c0,0-22.698,10.97-28.26,42.72c-5.562,31.75,0.927,60.952-19.699,81.114
			l-9.734-22.712h-27.579c0,0,15.67-12.515,21.058-51.901c4.173-30.503,18.406-42.167,51.933-50.87L243.148,252.354z"/>
		<path style="fill:#003454;" d="M310.666,236.612c-4.661-6.671-19.576,0-19.576,0s6.836-19.086-5.904-25.757
			c-12.74-6.671-35.735,22.051-35.735,22.051s-22.994-28.722-35.735-22.051c-12.74,6.671-5.904,25.757-5.904,25.757
			s-14.915-6.671-19.576,0c-4.661,6.671,0.101,22.046,33.998,22.046h27.217h27.217C310.565,258.658,315.327,243.283,310.666,236.612
			z"/>
		<path style="fill:#001E33;" d="M254.125,244.956c0,0,30.265-27.151,34.348-16.576
			C291.743,236.851,273.821,246.086,254.125,244.956z"/>
		<path style="fill:#001E33;" d="M244.42,244.956c0,0-30.266-27.151-34.348-16.576C206.802,236.851,224.725,246.086,244.42,244.956z
			"/>
		<path style="fill:none;stroke:#003454;stroke-miterlimit:10;" d="M224.693,270.427c0,0,3.027-5.607,7.577-9.423"/>
		<path style="fill:none;stroke:#003454;stroke-miterlimit:10;" d="M275.281,270.427c0,0-3.027-5.607-7.577-9.423"/>
	</g>
	<g>
		<defs>
			<rect id="SVGID_00000011001893470075533580000000656211542359099800_" x="0.004" width="500" height="500"/>
		</defs>
		<clipPath id="SVGID_00000093870665303580399550000000278921506767285939_">
			<use xlink:href="#SVGID_00000011001893470075533580000000656211542359099800_"  style="overflow:visible;"/>
		</clipPath>
		<g style="clip-path:url(#SVGID_00000093870665303580399550000000278921506767285939_);">
			<g>
				<path style="fill:#7FB3D6;" d="M135.386,388.354c0,0,3.908,7.299,11.108,11.657l17.716-13.263c0,0,12.126,1.411,1.863,36.307
					h-19.958l-10.105-17.107L135.386,388.354z"/>
			</g>
			<g>
				<path style="fill:#7FB3D6;" d="M362.438,388.354c0,0-3.908,7.299-11.108,11.657l-17.716-13.263c0,0-12.126,1.411-1.863,36.307
					h19.958l10.105-17.107L362.438,388.354z"/>
			</g>
		</g>
		<g style="clip-path:url(#SVGID_00000093870665303580399550000000278921506767285939_);">
			<g>
				<g>
					<path style="fill:#FFB1A5;" d="M336.511,418.342c-3.027-7.279-5.069-14.947-5.845-22.792
						c-1.26-12.728,1.471-18.329,5.608-19.259c9.234-2.074,21.624,28.492,21.624,28.492s3.44-5.916,4.525-16.429l2.924,56.809
						l-20.137-5.899L336.511,418.342z"/>
					<path style="fill:#FFB1A5;" d="M385.318,383.277c-6.907-36.82-21.286-33.112-21.286-33.112l-1.609,38.189l-3.845,28.606
						c-0.712,5.297-2.69,10.254-5.672,14.507l-11.146-21.082c-8.993,18.842,1.156,39.614,1.156,39.614l0,0
						c3.484,8.561,11.68,20.71,25.853,20.71C397.348,470.709,392.224,420.097,385.318,383.277z"/>
					<path style="fill:#F4837D;" d="M341.652,445.893c0,0,8.898-18.121,22.726-22.232c13.829-4.111,26.336,4.343,26.336,4.343
						S365.672,447.054,341.652,445.893z"/>
					<g>
						<path style="fill:#1358BC;" d="M363.69,431.748c14.313-5.115,25.285-4.528,31.968-3.139c4.51,0.938,8.091,4.33,9.268,8.784
							c1.223,4.629,2.819,11.54,4.047,19.919c0.901,6.145-2.963,11.996-8.981,13.529c-9.769,2.489-25.146,6.576-39.988,11.221
							c-5.203,1.628-10.866-0.443-13.785-5.048c-2.637-4.162-5.861-9.781-8.758-16.322c-2.002-4.522-1.095-9.805,2.34-13.363
							C344.549,442.41,352.533,435.735,363.69,431.748z"/>
						<path style="fill:#1358BC;" d="M406.898,459.56c0,0,20.291,30.354,35.292,71.91l-81.267,22.834
							c0,0-10.773-39.298-12.327-78.363C348.597,475.941,372.567,453.864,406.898,459.56z"/>
						<g>
							<path style="fill:none;stroke:#001E33;stroke-width:1.5;stroke-miterlimit:10;" d="M351.199,476.127
								c0,0,16.85-23.44,54.005-16.973"/>
							<g>
								<g>
									<path style="fill:#00479B;" d="M347.567,468.726c-3.892-6.566-6.282-12.425-6.305-12.484l1.661-0.673
										c0.023,0.057,2.366,5.799,6.187,12.243L347.567,468.726z"/>
								</g>
								<g>
									
										<rect x="400.348" y="434.835" transform="matrix(0.9818 -0.1897 0.1897 0.9818 -76.9006 84.1916)" style="fill:#00479B;" width="1.792" height="17.755"/>
								</g>
								<g>
									
										<rect x="389.099" y="432.915" transform="matrix(0.9807 -0.1956 0.1956 0.9807 -79.0004 84.8484)" style="fill:#00479B;" width="1.793" height="18.806"/>
								</g>
								<g>
									
										<rect x="376.892" y="432.697" transform="matrix(0.9663 -0.2574 0.2574 0.9663 -101.0994 112.1563)" style="fill:#00479B;" width="1.793" height="18.983"/>
								</g>
								<g>
									
										<rect x="361.006" y="438.599" transform="matrix(0.9245 -0.3813 0.3813 0.9245 -143.441 171.8098)" style="fill:#00479B;" width="1.793" height="18.66"/>
								</g>
								<g>
									
										<rect x="351.055" y="447.952" transform="matrix(0.8977 -0.4406 0.4406 0.8977 -164.7516 201.6775)" style="fill:#00479B;" width="1.793" height="15.383"/>
								</g>
							</g>
						</g>
					</g>
				</g>
			</g>
			<g>
				<g>
					<path style="fill:#FFB1A5;" d="M161.299,418.342c3.027-7.279,5.069-14.947,5.845-22.792c1.26-12.728-1.471-18.329-5.608-19.259
						c-9.234-2.074-21.625,28.492-21.625,28.492s-3.44-5.916-4.525-16.429l-2.924,56.809l20.136-5.899L161.299,418.342z"/>
					<path style="fill:#FFB1A5;" d="M112.492,383.277c6.907-36.82,21.286-33.112,21.286-33.112l1.609,38.189l3.845,28.606
						c0.712,5.297,2.69,10.254,5.672,14.507l11.146-21.082c8.993,18.842-1.156,39.614-1.156,39.614l0,0
						c-3.484,8.561-11.68,20.71-25.853,20.71C100.461,470.709,105.586,420.097,112.492,383.277z"/>
					<path style="fill:#F4837D;" d="M156.158,445.893c0,0-8.898-18.121-22.726-22.232c-13.829-4.111-26.336,4.343-26.336,4.343
						S132.138,447.054,156.158,445.893z"/>
					<g>
						<path style="fill:#1358BC;" d="M134.12,431.748c-14.313-5.115-25.285-4.528-31.968-3.139c-4.51,0.938-8.091,4.33-9.268,8.784
							c-1.223,4.629-2.819,11.54-4.047,19.919c-0.901,6.145,2.963,11.996,8.981,13.529c9.769,2.489,25.146,6.576,39.988,11.221
							c5.203,1.628,10.866-0.443,13.785-5.048c2.637-4.162,5.861-9.781,8.757-16.322c2.003-4.522,1.095-9.805-2.339-13.363
							C153.261,442.41,145.277,435.735,134.12,431.748z"/>
						<path style="fill:#1358BC;" d="M90.912,459.56c0,0-20.291,30.354-35.292,71.91l81.267,22.834c0,0,10.773-39.298,12.327-78.363
							C149.213,475.941,125.243,453.864,90.912,459.56z"/>
						<g>
							<path style="fill:none;stroke:#001E33;stroke-width:1.5;stroke-miterlimit:10;" d="M146.611,476.127
								c0,0-16.85-23.44-54.005-16.973"/>
							<g>
								<g>
									<path style="fill:#00479B;" d="M150.243,468.726c3.892-6.566,6.282-12.425,6.305-12.484l-1.661-0.673
										c-0.023,0.057-2.366,5.799-6.187,12.243L150.243,468.726z"/>
								</g>
								<g>
									
										<rect x="87.688" y="442.817" transform="matrix(0.1897 -0.9818 0.9818 0.1897 -357.4086 454.3374)" style="fill:#00479B;" width="17.755" height="1.792"/>
								</g>
								<g>
									
										<rect x="98.412" y="441.421" transform="matrix(0.1956 -0.9807 0.9807 0.1956 -347.0486 461.5121)" style="fill:#00479B;" width="18.806" height="1.793"/>
								</g>
								<g>
									
										<rect x="110.53" y="441.292" transform="matrix(0.2574 -0.9663 0.9663 0.2574 -338.1611 444.3333)" style="fill:#00479B;" width="18.983" height="1.793"/>
								</g>
								<g>
									
										<rect x="126.578" y="447.032" transform="matrix(0.3813 -0.9245 0.9245 0.3813 -330.0045 402.7961)" style="fill:#00479B;" width="18.66" height="1.793"/>
								</g>
								<g>
									
										<rect x="138.166" y="454.747" transform="matrix(0.4406 -0.8977 0.8977 0.4406 -327.4406 385.8275)" style="fill:#00479B;" width="15.383" height="1.793"/>
								</g>
							</g>
						</g>
					</g>
				</g>
			</g>
		</g>
	</g>
</g>
</svg>
