<?xml version="1.0" encoding="utf-8"?>
<!-- Generator: Adobe Illustrator 27.5.0, SVG Export Plug-In . SVG Version: 6.00 Build 0)  -->
<svg version="1.1" id="Layer_1" xmlns="http://www.w3.org/2000/svg" xmlns:xlink="http://www.w3.org/1999/xlink" x="0px" y="0px"
	 viewBox="0 0 2669.017 2000" style="enable-background:new 0 0 2669.017 2000;" xml:space="preserve">
<g>
	<rect x="0.001" style="fill:#FFFFFF;" width="2669.017" height="2000"/>
	<g>
		<path style="fill:#EFF6FC;" d="M394.413,1847.953h1896.443c264.737-153.263,162.728-457.51,3.676-640.723
			c-124.042-142.885,1.25-299.57-151.159-614.448c-76.071-157.164-387.874-516.279-1122.453-318.041
			c-321.625,86.796-242.729,364.36-487.424,513.797c-383.342,234.11,4.349,337.011-211.513,653.726
			C165.753,1671.486,388.5,1844.615,394.413,1847.953z"/>
		<path style="fill:#50BFA5;" d="M1784.694,1240.482l9.03-47.846c7.428-35.333,42.431-57.882,78.181-50.366l0,0
			c90.09,18.94,147.948,106.474,129.229,195.51l-13.686,65.095c-5.995,28.519,5.077,56.702,26.338,74.146
			c19.308,15.842,27.824,41.18,22.734,65.396l-7.215,34.319c-7.812,37.154-32.748,68.128-66.956,85.221
			c-20.006,9.994-35.376,28.573-40.298,51.994l-10.217,48.591c-11.293,53.722-64.514,88.007-118.869,76.58l-31.013-6.52
			c-54.356-11.427-89.267-64.241-77.972-117.962l0,0c23.188-65.981,9.797-109.688-10.444-137.317
			c-29.761-40.626-41.503-91.432-31.208-140.396l1.443-6.868c10.866-51.682,45.16-94.993,92.404-119.416
			C1757.034,1299.861,1776.554,1279.201,1784.694,1240.482z"/>
		<g>
			<g>
				<path style="fill:#256653;" d="M2124.863,788.539c0,0-32.842,71.497-54.942,101.699
					c-22.101,30.201-43.151,59.082-60.786,142.906c-17.635,83.823-14.61,92.248-19.435,113.899
					c-4.826,21.65-36.235,109.368-36.417,125.455c-0.182,16.084-63.477,107.651-79.689,150.509s-44.934,104.076-43.318,135.246
					l7.214-1.832c0,0,5.88-72.677,55.915-146.123s42.88-87.313,99.7-125.045c56.822-37.731,93.521-141.96,93.521-141.96
					s57.8-113.21,55.111-172.062C2139.047,912.378,2154.39,859.301,2124.863,788.539z"/>
				<path style="fill:#256653;" d="M2054.803,678.575c0,0-1.912,46.965-17.063,74.865c-15.149,27.9-28.199,44.846-30.949,75.031
					c-2.751,30.186-12.265,108.008-54.509,146.001c-42.243,37.993-37.854,158.465-70.009,192.902
					c-32.156,34.437-37.647,65.141-31.712,124.204c5.936,59.064,17.618,128.33-29.029,235.17l-10.543-26.573
					c0,0,33.371-87.896,25.293-139.362s-36.19-129.231-25.901-166.529s-27.972-44.582-4.932-100.994
					c23.038-56.41,13.576-76.01,44.939-124.784c0,0,3.216-2.284,11.463-43.55c8.247-41.267,74.725-116.902,105.358-142.713
					C1997.846,756.432,2041.995,715.067,2054.803,678.575z"/>
				<path style="fill:#3C8F7C;" d="M1923.173,911.111c0,0-36.686,62.81-37.208,103.236c-0.522,40.427,3.857,73.31-14.703,128.67
					c-18.561,55.361,18.28,90.356,7.662,120.923c-10.619,30.564-11.439,66.754-11.117,94.196
					c0.324,27.441-42.021,118.264-48.466,164.249c-6.445,45.985,1.791,46.138,1.791,46.138s7.02-60.713,16.763-80.789
					c9.744-20.075,39.37-89.289,46.29-116.068s25.681-43.967,41.863-89.318c16.184-45.352,39.188-83.548,37.432-147.9
					C1961.724,1070.094,1987.621,1002.172,1923.173,911.111z"/>
				<path style="fill:#3C8F7C;" d="M1845.505,1526.383c0,0,17.108-79.712,89.248-87.673s114.517,6.303,165.479-51.934
					c50.963-58.237,80.564-150.655,96.844-166.565c0,0-25.604-13.172-68.177,26.627c-42.571,39.799-72.472,69.987-97.117,93.16
					s-44.659,8.064-70.678,23.341c-21.807,12.804-50.006,49.804-62.425,69.186c-4.033,6.296-8.817,12.073-14.312,17.144
					c-4.999,4.613-10.951,10.266-14.771,14.428c-7.637,8.324-29.669,62.572-29.669,62.572L1845.505,1526.383z"/>
				<path style="fill:#3C8F7C;" d="M1820.08,1512.318c0,0,25.425-97.484,8.395-145.189c-17.029-47.705-70.341-83.007-68.199-112.973
					c2.143-29.967,36.37-110.961,8.463-171.264c0,0-10.602,53.789-21.061,65.755c-10.461,11.964-82.25,60.217-69.523,123.94
					c12.728,63.726,82.516,78.623,99.704,97.383c17.188,18.76,40.392,18.736,40.538,31.211c0.146,12.473,4.673,57.83-3.033,102.584
					L1820.08,1512.318z"/>
				<path style="fill:#327F6B;" d="M1847.879,1447.08l35.716-102.886c0,0,20.981-82.752,33.144-151.76s6.435-281.323,6.435-281.323
					s-36.686,62.81-37.208,103.236c-0.522,40.427,3.857,73.31-14.703,128.67c-18.561,55.361,18.28,90.356,7.662,120.923
					c-10.619,30.564-11.44,66.754-11.117,94.196c0.324,27.441-42.021,118.264-48.466,164.249c-3.53,25.19-2.654,36.612-1.141,41.805
					C1812.472,1523.97,1847.879,1447.08,1847.879,1447.08z"/>
				<path style="fill:#327F6B;" d="M2023.81,1385.791c-31.862,6.364-60.352,4.191-98.176,32.346
					c-37.823,28.152-60.068,58.219-60.068,58.219s-17.004,30.386-24.031,46.404c-1.014,2.448-1.606,3.908-1.606,3.908l5.577-0.285
					c0,0,17.108-79.712,89.248-87.673s114.517,6.303,165.479-51.934c50.963-58.237,80.564-150.655,96.844-166.565
					c0,0-54.205,42.168-87.699,79.49C2075.882,1337.022,2055.673,1379.428,2023.81,1385.791z"/>
				<path style="fill:#327F6B;" d="M1747.678,1148.647c-10.461,11.964-82.25,60.217-69.523,123.941
					c12.728,63.725,82.516,78.622,99.704,97.382c17.188,18.76,40.392,18.736,40.538,31.211c0.146,12.473,4.673,57.83-3.033,102.583
					l2.06,3.736c3.766-17.467,8.991-44.064,10.7-64.264c2.774-32.802-2.543-46.379-13.085-72.952
					c-10.543-26.573-76.054-80.693-92.47-109.148c-16.415-28.455,31.653-76.02,42.322-98.984c10.67-22.964,3.848-79.26,3.848-79.26
					S1758.137,1136.682,1747.678,1148.647z"/>
			</g>
			<g>
				<path style="fill:#96D9C9;" d="M1716.06,1847.953c22.947-29.752,148.78-189.145,230.829-215.706
					c90.566-29.319,5.208,87.13,5.208,87.13s160.663-175.682,219.622-159.844c54.045,14.519,0,123.413,0,123.413
					s60.87-60.3,134.688-60.3c71.842,0-50.191,213.859-56.775,225.307H1716.06z"/>
				<g>
					<g>
						<path style="fill:#3C8F7C;" d="M2200.245,1503.147c-65.642,102.521-113.551,216.407-140.943,337.396l-4.5-1.206
							c27.277-118.456,74.865-232.144,140.399-334.552c15.23-23.801,31.677-52.036,60.193-61.32c0.551-0.18,0.759,0.656,0.234,0.854
							C2229.582,1454.135,2214.495,1480.892,2200.245,1503.147z"/>
					</g>
					<g>
						<path style="fill:#3C8F7C;" d="M2075.128,1844.787c73.354-99.751,162.532-191.949,268.571-272.124
							c1.059-0.8,2.488,1.045,1.422,1.864c-100.57,77.307-189.547,168.595-264.417,271.756L2075.128,1844.787z"/>
					</g>
					<path style="fill:#3C8F7C;" d="M2206.245,1439.568c1.689,2.484,8.158,8.966,10.059,17.481c2.552,8.078,0.536,18.19,0.32,17.837
						c-0.487,0.2,7.484-6.539,9.976-17.261c3.224-10.283,0.967-24.546-3.044-29.271c-6.926-10.683-19.028-11.766-21.378-6.585
						C2199.683,1426.914,2202.847,1433.915,2206.245,1439.568z"/>
					<path style="fill:#3C8F7C;" d="M2221.949,1531.079c-2.452-1.739-8.805-8.333-17.281-10.402
						c-8.025-2.71-18.177-0.896-17.826-0.672c-0.21,0.483,6.686-7.354,17.454-9.633c10.344-3.021,24.56-0.483,29.205,3.62
						c10.544,7.136,11.388,19.257,6.163,21.504C2234.471,1537.889,2227.534,1534.588,2221.949,1531.079z"/>
					<path style="fill:#3C8F7C;" d="M2198.25,1571.187c-2.452-1.739-8.804-8.333-17.28-10.401
						c-8.027-2.712-18.177-0.896-17.827-0.673c-0.21,0.483,6.686-7.354,17.453-9.633c10.345-3.021,24.561-0.483,29.207,3.62
						c10.543,7.136,11.388,19.257,6.162,21.504C2210.771,1577.996,2203.834,1574.695,2198.25,1571.187z"/>
					<path style="fill:#3C8F7C;" d="M2282.783,1664.216c-2.452-1.739-8.804-8.334-17.28-10.402
						c-8.027-2.711-18.177-0.896-17.827-0.671c-0.211,0.482,6.686-7.355,17.453-9.634c10.345-3.021,24.561-0.483,29.207,3.619
						c10.544,7.137,11.388,19.257,6.162,21.505C2295.305,1671.025,2288.367,1667.724,2282.783,1664.216z"/>
					<path style="fill:#3C8F7C;" d="M2325.971,1626.168c-2.451-1.738-8.805-8.334-17.28-10.402
						c-8.026-2.711-18.177-0.896-17.826-0.672c-0.211,0.483,6.686-7.354,17.453-9.634c10.344-3.02,24.561-0.482,29.206,3.62
						c10.544,7.137,11.387,19.257,6.162,21.505C2338.493,1632.978,2331.557,1629.677,2325.971,1626.168z"/>
					<path style="fill:#3C8F7C;" d="M2173.085,1484.951c2.061,2.188,9.47,7.568,12.688,15.678
						c3.795,7.574,3.399,17.879,3.129,17.563c-0.449,0.275,6.36-7.638,7.13-18.617c1.563-10.662-2.915-24.392-7.62-28.426
						c-8.524-9.457-20.646-8.618-22.15-3.132C2164.61,1473.49,2168.839,1479.904,2173.085,1484.951z"/>
					<path style="fill:#3C8F7C;" d="M2138.236,1530.437c2.932,1.555,13.178,4.376,18.332,12.043
						c5.832,6.823,6.573,18.493,6.185,18.257c-0.548,0.5,7.305-11.258,6.965-23.844c0.726-12.571-6.74-25.969-13.321-28.449
						c-12.185-6.891-27.772-0.745-29.052,6.024C2125.872,1521.287,2132.125,1526.629,2138.236,1530.437z"/>
					<path style="fill:#3C8F7C;" d="M2101.557,1599.327c3.153,1.04,13.728,2.097,20.097,8.789
						c6.897,5.745,9.591,17.124,9.168,16.956c-0.456,0.585,5.306-12.326,2.855-24.675c-1.398-12.515-11.011-24.466-17.916-25.804
						c-13.17-4.743-27.503,3.937-27.626,10.824C2087.83,1592.388,2094.893,1596.602,2101.557,1599.327z"/>
					<path style="fill:#3C8F7C;" d="M2210.093,1647.314c2.297,1.434,10.471,4.311,14.227,10.841
						c4.355,5.883,4.294,15.417,3.992,15.203c-0.475,0.376,6.581-8.741,7.022-18.997c1.306-10.186-4.004-21.51-9.217-23.901
						c-9.519-6.299-22.549-2.188-23.975,3.246C2200.557,1639.169,2205.338,1643.87,2210.093,1647.314z"/>
					<path style="fill:#3C8F7C;" d="M2266.599,1455.697c-1.374-1.135-4.843-5.315-9.768-6.909
						c-4.63-1.955-10.713-1.324-10.516-1.178c-0.146,0.277,4.276-4.058,10.747-4.935c6.251-1.334,14.549,0.788,17.118,3.419
						c5.925,4.684,5.894,11.891,2.704,12.991C2273.707,1460.274,2269.749,1458.018,2266.599,1455.697z"/>
					<path style="fill:#3C8F7C;" d="M2253.438,1426.422c0.061,1.782,1.253,7.081-0.491,11.954c-1.277,4.86-5.49,9.294-5.487,9.048
						c-0.308-0.053,5.825-0.91,10.469-5.498c4.874-4.138,8.259-12.006,7.743-15.646c-0.092-7.551-5.818-11.927-8.638-10.072
						C2254.153,1417.997,2253.523,1422.511,2253.438,1426.422z"/>
					<path style="fill:#3C8F7C;" d="M2357.072,1587.412c-1.374-1.136-4.843-5.315-9.767-6.909
						c-4.63-1.956-10.714-1.326-10.517-1.178c-0.146,0.276,4.277-4.058,10.747-4.936c6.251-1.334,14.55,0.789,17.118,3.419
						c5.925,4.684,5.894,11.891,2.705,12.992C2364.182,1591.988,2360.223,1589.731,2357.072,1587.412z"/>
					<path style="fill:#3C8F7C;" d="M2341.196,1557.885c0.206,1.77,1.828,6.954,0.49,11.953c-0.876,4.949-4.711,9.713-4.728,9.467
						c-0.312-0.027,5.73-1.384,9.983-6.337c4.518-4.522,7.246-12.642,6.436-16.228c-0.71-7.519-6.776-11.41-9.435-9.332
						C2341.22,1549.43,2340.961,1553.979,2341.196,1557.885z"/>
				</g>
				<g>
					<g>
						<path style="fill:#3C8F7C;" d="M2330.147,1748.692c-67.028,7.347-129.456,36.935-189.552,65.787
							c-40.525,19.456-38.481,24.999-46.737,27.896c-1.338,0.47-2.675-0.982-2.024-2.271c3.177-6.29,11.502-10.545,17.295-14.163
							c6.743-4.21,13.789-7.933,20.938-11.403c15.297-7.427,30.991-14.11,46.584-20.884c31.721-13.783,63.955-26.747,97.467-35.521
							c18.371-4.811,37.065-8.28,55.985-9.985C2330.455,1748.115,2330.496,1748.653,2330.147,1748.692L2330.147,1748.692z"/>
					</g>
					<path style="fill:#3C8F7C;" d="M2269.735,1727.911c0.437,2.75,3.301,10.734,1.534,18.622
						c-1.048,7.778-6.727,15.458-6.769,15.076c-0.488-0.024,8.853-2.528,15.171-10.532c6.76-7.346,10.494-20.191,8.998-25.734
						c-1.591-11.687-11.309-17.369-15.321-13.954C2269.229,1714.718,2269.117,1721.833,2269.735,1727.911z"/>
					<path style="fill:#3C8F7C;" d="M2210.686,1749.055c0.436,2.75,3.301,10.733,1.533,18.621
						c-1.048,7.778-6.726,15.459-6.768,15.076c-0.488-0.023,8.854-2.528,15.171-10.531c6.759-7.347,10.494-20.191,8.997-25.735
						c-1.591-11.686-11.307-17.368-15.321-13.953C2210.178,1735.86,2210.067,1742.976,2210.686,1749.055z"/>
					<path style="fill:#3C8F7C;" d="M2150.686,1775.799c0.436,2.749,3.3,10.734,1.533,18.621
						c-1.048,7.778-6.727,15.459-6.769,15.077c-0.488-0.024,8.854-2.528,15.171-10.532c6.76-7.347,10.495-20.191,8.998-25.735
						c-1.591-11.686-11.309-17.368-15.321-13.953C2150.178,1762.604,2150.067,1769.72,2150.686,1775.799z"/>
					<path style="fill:#3C8F7C;" d="M2287.363,1783.082c-1.213-2.269-3.559-9.752-9.262-14.578
						c-5.113-5.146-13.585-7.638-13.402-7.332c-0.346,0.289,7.936-3.078,17.058-0.707c9.081,1.642,19.003,9.023,20.994,13.943
						c5.349,9.5,1.359,19.11-3.503,18.834C2294.354,1793.089,2290.302,1787.906,2287.363,1783.082z"/>
					<path style="fill:#3C8F7C;" d="M2225.942,1804.823c-1.213-2.27-3.559-9.753-9.263-14.578
						c-5.113-5.148-13.585-7.639-13.401-7.333c-0.347,0.29,7.935-3.078,17.057-0.706c9.081,1.642,19.003,9.022,20.993,13.942
						c5.35,9.5,1.361,19.11-3.503,18.834C2232.933,1814.829,2228.879,1809.647,2225.942,1804.823z"/>
					<path style="fill:#3C8F7C;" d="M2334.142,1760.703c-1.062-1.265-3.523-5.654-7.742-7.931c-3.891-2.557-9.539-3.002-9.385-2.834
						c-0.179,0.229,4.577-2.98,10.618-2.696c5.919-0.17,13.124,3.155,15.023,5.981c4.615,5.259,3.379,11.819,0.289,12.288
						C2339.853,1766.063,2336.623,1763.345,2334.142,1760.703z"/>
					<path style="fill:#3C8F7C;" d="M2327.053,1731.826c-0.243,1.633-0.044,6.661-2.449,10.809
						c-1.978,4.215-6.558,7.549-6.514,7.325c-0.272-0.1,5.459,0.146,10.459-3.257c5.133-2.953,9.534-9.556,9.674-12.958
						c1.182-6.896-3.304-11.842-6.183-10.624C2329.116,1724.271,2327.786,1728.276,2327.053,1731.826z"/>
				</g>
			</g>
		</g>
		<g>
			<g>
				<path style="fill:#3C8F7C;" d="M600.731,1338.878c-78.761-70.229-119.26-171.087-139.364-243.331
					c-21.826-78.428-25.004-141.02-25.034-141.644l-4.281-0.265c0.029,0.628,3.223,63.682,25.181,142.633
					c20.291,72.958,61.216,174.851,140.953,245.949L600.731,1338.878z"/>
			</g>
			<g>
				<path style="fill:#3C8F7C;" d="M445.303,935.747c3.882,18.058,0.632,35.116-7.645,47.434
					c-12.978-9.554-23.184-24.862-27.065-42.92c-3.881-18.058-0.632-35.116,7.645-47.434
					C431.216,902.38,441.421,917.688,445.303,935.747z"/>
			</g>
			<g>
				<path style="fill:#3C8F7C;" d="M421.146,987.169c13.57,12.625,21.502,29.209,23.04,45.177
					c-14.897,0.678-31.286-5.367-44.856-17.993c-13.57-12.626-21.502-29.208-23.039-45.177
					C391.186,968.498,407.576,974.543,421.146,987.169z"/>
			</g>
			<g>
				<path style="fill:#3C8F7C;" d="M414.778,1041.194c16.864,5.291,30.694,17.036,38.879,31.302
					c-12.238,7.858-28.634,10.119-45.498,4.829c-16.864-5.291-30.694-17.035-38.879-31.301
					C381.519,1038.165,397.915,1035.904,414.778,1041.194z"/>
			</g>
			<g>
				<path style="fill:#3C8F7C;" d="M440.75,1106.188c13.358,4.214,24.038,14.99,30.088,28.6
					c-10.127,8.508-23.389,11.732-36.748,7.52c-13.358-4.213-24.038-14.989-30.089-28.599
					C414.129,1105.2,427.392,1101.976,440.75,1106.188z"/>
			</g>
			<g>
				<path style="fill:#3C8F7C;" d="M463.56,1013.429c10.513-10.584,24.436-15.095,37.914-13.648
					c0.746,14.265-4.172,28.722-14.686,39.305c-10.512,10.584-24.436,15.095-37.914,13.648
					C448.128,1038.469,453.047,1024.012,463.56,1013.429z"/>
			</g>
			<g>
				<path style="fill:#3C8F7C;" d="M475.745,1060.006c10.513-10.583,24.437-15.095,37.915-13.648
					c0.746,14.265-4.172,28.722-14.685,39.306c-10.513,10.583-24.437,15.094-37.915,13.647
					C460.314,1085.046,465.232,1070.589,475.745,1060.006z"/>
			</g>
		</g>
		<g>
			<g>
				<path style="fill:#50BFA5;" d="M553.264,1434.121c-72.732-10.602-134.976-53.691-174.384-87.972
					c-42.782-37.216-68.648-72.381-68.904-72.732l-2.59,1.489c0.258,0.354,26.309,35.781,69.369,73.251
					c39.791,34.625,102.679,78.151,176.313,88.884L553.264,1434.121z"/>
			</g>
			<g>
				<path style="fill:#50BFA5;" d="M308.223,1259.421c9.187,9.008,13.843,20.17,13.758,30.507
					c-11.21-0.573-23.017-5.557-32.203-14.564c-9.185-9.008-13.842-20.171-13.757-30.507
					C287.231,1245.43,299.037,1250.412,308.223,1259.421z"/>
			</g>
			<g>
				<path style="fill:#50BFA5;" d="M313.912,1298.583c12.733,2.131,23.707,8.728,30.728,17.42
					c-8.399,6.11-20.246,8.886-32.979,6.753c-12.733-2.133-23.707-8.729-30.728-17.421
					C289.332,1299.226,301.18,1296.45,313.912,1298.583z"/>
			</g>
			<g>
				<path style="fill:#50BFA5;" d="M330.942,1332.431c11.833-3.396,24.379-1.875,34.611,3.277
					c-4.099,9.265-12.762,16.87-24.595,20.266c-11.833,3.396-24.379,1.875-34.611-3.276
					C310.446,1343.433,319.108,1335.826,330.942,1332.431z"/>
			</g>
			<g>
				<path style="fill:#50BFA5;" d="M370.978,1360.246c9.382-2.677,19.726-0.511,28.465,5.079
					c-2.623,8.831-9.094,15.795-18.476,18.472c-9.381,2.677-19.725,0.512-28.465-5.078
					C355.125,1369.887,361.597,1362.923,370.978,1360.246z"/>
			</g>
			<g>
				<path style="fill:#50BFA5;" d="M348.644,1297.572c2.05-10.187,8.413-18.151,16.802-22.482
					c5.908,8.006,8.596,18.297,6.546,28.483c-2.05,10.186-8.413,18.151-16.803,22.481
					C349.282,1318.05,346.594,1307.758,348.644,1297.572z"/>
			</g>
			<g>
				<path style="fill:#50BFA5;" d="M373.601,1319.972c2.05-10.187,8.413-18.151,16.803-22.482
					c5.907,8.005,8.596,18.297,6.545,28.483c-2.05,10.186-8.413,18.151-16.803,22.481
					C374.239,1340.449,371.551,1330.158,373.601,1319.972z"/>
			</g>
		</g>
		<g>
			<g>
				<path style="fill:#96D9C9;" d="M623.405,1687.234c-88.601,14.262-175.66-20.855-233.091-52.827
					c-62.348-34.707-104.227-73.309-104.643-73.695l-2.539,3.105c0.419,0.388,42.601,39.282,105.358,74.231
					c57.993,32.297,145.951,67.765,235.65,53.326L623.405,1687.234z"/>
			</g>
			<g>
				<path style="fill:#96D9C9;" d="M278.997,1541.94c13.723,8.867,22.859,22.538,26.173,36.951
					c-13.305,3.673-28.765,1.45-42.488-7.416c-13.722-8.868-22.858-22.539-26.172-36.952
					C249.814,1530.851,265.275,1533.072,278.997,1541.94z"/>
			</g>
			<g>
				<path style="fill:#96D9C9;" d="M298.589,1594.149c15.602-2.112,30.621,2.687,41.707,11.979
					c-7.81,11.851-20.754,20.435-36.356,22.547c-15.602,2.112-30.621-2.687-41.707-11.978
					C270.042,1604.847,282.987,1596.262,298.589,1594.149z"/>
			</g>
			<g>
				<path style="fill:#96D9C9;" d="M329.694,1634.444c12.724-9.442,27.905-12.332,41.579-9.246
					c-1.736,14.522-9.36,28.559-22.084,38.001c-12.724,9.443-27.904,12.333-41.578,9.246
					C309.347,1657.924,316.971,1643.887,329.694,1634.444z"/>
			</g>
			<g>
				<path style="fill:#96D9C9;" d="M379.129,1662.128c12.724-9.443,27.905-12.333,41.579-9.246
					c-1.736,14.522-9.359,28.559-22.083,38.001c-12.724,9.443-27.905,12.333-41.579,9.246
					C358.781,1685.606,366.405,1671.571,379.129,1662.128z"/>
			</g>
			<g>
				<path style="fill:#96D9C9;" d="M340.536,1597.647c-6.657-13.722-7.771-28.832-4.138-41.584
					c11.694,3.866,22.511,13.35,29.168,27.071c6.657,13.723,7.77,28.833,4.138,41.586
					C358.009,1620.854,347.192,1611.37,340.536,1597.647z"/>
			</g>
			<g>
				<path style="fill:#96D9C9;" d="M391.941,1626.168c-6.856-13.618-8.2-28.729-4.769-41.567
					c11.734,3.656,22.678,12.956,29.535,26.574c6.856,13.62,8.2,28.73,4.77,41.567
					C409.742,1649.086,398.797,1639.788,391.941,1626.168z"/>
			</g>
			<g>
				<path style="fill:#96D9C9;" d="M447.696,1681.048c3.702-5.668,9.412-8.957,15.434-9.562c1.539,6.262,0.615,13.132-3.086,18.801
					c-3.702,5.668-9.412,8.958-15.434,9.562C443.07,1693.588,443.994,1686.717,447.696,1681.048z"/>
			</g>
		</g>
		<path style="fill:#3C8F7C;" d="M822.859,1836.84c0,0,61.164-417.799,25.716-460.278c-48.988-58.706-89.397,136.046-93.363,119.503
			c-37.445-156.217-47.42-356.096-168.217-377.25c-68.668-12.026,15.861,148.634,10.775,192.086
			c-5.085,43.452-128.832-100.814-204.029-176.396c-75.198-75.582-114.034-27.729-66.52,67.312
			c45.944,91.901,194.575,192.328,163.938,204.244s-216.636-106.766-239.413-56.033c-27.927,62.205,251.08,146.863,224.807,160.837
			c-26.273,13.974-159.621-32.049-155.978,15.521c3.643,47.568,182.9,45.797,179.837,66.72
			c-4.96,33.88-121.344-42.639-126.555,4.239c-5.33,47.948,153.8,39.034,151.006,76.431c-1.605,21.492-43.823,16.882-48.719,46.684
			c-12.303,74.886,208.417,122.723,208.417,122.723L822.859,1836.84z"/>
		<g>
			<path style="fill:#50BFA5;" d="M882.331,1844.39c0,0-101.731-155.978-150.685-185.429
				c-52.161-31.381-12.451,62.566-12.451,62.566s-106.591-126.837-136.222-101.066c-29.631,25.771-2.737,55.615-2.737,55.615
				s-95.694-28.357-112.894,6.768c-26.43,53.975,131.119,98.731,131.119,98.731s-65.292-1.432-55.19,35.725
				C554.703,1859.344,882.331,1844.39,882.331,1844.39z"/>
			<path style="fill:#96D9C9;" d="M467.343,1682.844c17.2-35.125,112.894-6.768,112.894-6.768s-26.894-29.845,2.737-55.615
				c29.631-25.771,114.899,51.37,114.899,51.37s-8.938-63.614,55.271-7.575c45.862,40.027,129.187,180.134,129.187,180.134
				L467.343,1682.844z"/>
		</g>
		<g>
			<g>
				<g>
					<path style="fill:#96D9C9;" d="M903.011,1781.795l3.209-4.501c-121.016-89.17-196.122-220.233-237.819-314.481
						c-45.249-102.28-62.021-184.495-62.185-185.313l-5.877,0.408c0.164,0.825,17.039,83.594,62.543,186.488
						C704.919,1559.45,780.703,1691.675,903.011,1781.795z"/>
				</g>
				<g>
					<path style="fill:#96D9C9;" d="M614.779,1253.532c8.862,23.591,7.844,46.161-0.944,62.706
						c-19.521-12.024-36.423-31.734-45.286-55.323c-8.862-23.591-7.844-46.162,0.943-62.707
						C589.014,1210.232,605.917,1229.942,614.779,1253.532z"/>
				</g>
				<g>
					<path style="fill:#96D9C9;" d="M592.208,1322.173c20.936,16.041,35.005,37.522,40.269,58.461
						c-20.092,1.512-43.547-5.758-64.484-21.799c-20.936-16.041-35.005-37.522-40.269-58.461
						C547.816,1298.862,571.272,1306.132,592.208,1322.173z"/>
				</g>
				<g>
					<path style="fill:#96D9C9;" d="M594.311,1393.496c23.95,6.258,45.064,21.129,59.016,39.553
						c-15.054,10.846-36.865,14.502-60.816,8.245c-23.95-6.257-45.064-21.129-59.015-39.552
						C548.549,1390.897,570.36,1387.24,594.311,1393.496z"/>
				</g>
				<g>
					<path style="fill:#96D9C9;" d="M659.941,1495.245c10.143,1.905,19.388,7.543,25.777,14.904
						c-5.895,5.052-14.828,7.273-24.971,5.367c-10.143-1.906-19.388-7.543-25.776-14.904
						C640.866,1495.56,649.799,1493.339,659.941,1495.245z"/>
				</g>
				<g>
					<path style="fill:#96D9C9;" d="M681.8,1533.839c10.143,1.906,19.388,7.543,25.776,14.904
						c-5.895,5.053-14.828,7.273-24.97,5.367c-10.143-1.905-19.388-7.542-25.776-14.903
						C662.725,1534.154,671.658,1531.934,681.8,1533.839z"/>
				</g>
				<g>
					<path style="fill:#96D9C9;" d="M655.021,1354.946c12.169-14.358,30.176-20.871,48.764-19.529
						c3.851,18.73,0.048,37.95-12.12,52.308c-12.169,14.357-30.176,20.871-48.765,19.529
						C639.049,1388.523,642.852,1369.303,655.021,1354.946z"/>
				</g>
				<g>
					<path style="fill:#96D9C9;" d="M680.832,1415.7c12.169-14.357,30.176-20.87,48.765-19.528
						c3.851,18.73,0.048,37.95-12.12,52.308c-12.169,14.357-30.176,20.871-48.765,19.529
						C664.861,1449.278,668.663,1430.058,680.832,1415.7z"/>
				</g>
				<g>
					<path style="fill:#96D9C9;" d="M710.335,1505.389c7.92-9.345,19.641-13.584,31.74-12.711
						c2.506,12.191,0.031,24.702-7.889,34.047c-7.92,9.346-19.641,13.584-31.74,12.711
						C699.94,1527.244,702.415,1514.734,710.335,1505.389z"/>
				</g>
			</g>
		</g>
		<g>
			<g>
				<path style="fill:#EB9949;" d="M1065.51,594.365c-60.252,27.465-82.44,69.882-59.947,149.091
					c15.775,44.449,118.45,155.793,236.755,148.508c-104.056-76.087-124.89-228.508-55.584-236.018
					C1164.031,577.199,1065.51,594.365,1065.51,594.365z"/>
				<path style="fill:#F7CC7F;" d="M1364.625,886.177c-10.472-205.985-51.59-304.15-160.697-379.249
					c-41.525-28.859-97.599-20.669-167.166,42.553c-83.302,75.705-65.907,102.75-31.2,193.975
					c-11.705-55.54,2.137-112.656,53.434-117.121c51.296-4.465,119.387,13.518,202.088,120.43
					C1315.938,817.678,1325.542,906.269,1364.625,886.177z"/>
				<path style="fill:#EB9642;" d="M1648.732,553.099c10.992,98.906-79.89,163.223-164.422,243.504
					c-44.337,42.107-66.412,83.905-66.412,83.905c-18.727-14.793-9.51-28.609-4.885-49.247
					c89.564-134.745,101.778-231.703,70.023-254.876C1496.212,521.455,1622.27,445.161,1648.732,553.099z"/>
				<path style="fill:#F7CC7F;" d="M1361.326,880.507c-38.637-226.968-33.085-336.915,3.888-410.456
					c39.805-79.176,81.129-98.288,156.499-60.83c120.089,59.683,128.328,99.183,127.02,143.877
					c-21.984-50.862-70.838-47-101.371-23.827c-30.534,23.173-95.265,99.774-114.807,211.457
					c-6.106,38.3-18.319,109.941-14.656,139.779C1402.021,884.596,1363.093,891.009,1361.326,880.507z"/>
				<path style="fill:#EB9642;" d="M1709.563,717.849c20.763,51.174,11.014,150.121-161.817,169.523
					c83.651,47.727,312.407,13.723,321.813-58.484c13.435-92.05-34.197-114.002-84.272-126.2
					C1735.211,690.491,1709.563,717.849,1709.563,717.849z"/>
				<path style="fill:#F7CC7F;" d="M1418.884,880.078c85.494-148.39,233.276-307.76,334.647-306.607
					c53.992-0.006,143.605,201.676,116.027,255.417c-3.664-75.313-47.633-99.131-111.142-96.878
					c-63.51,2.253-198.112,123.945-264.548,148.068C1437.204,893.901,1418.884,880.078,1418.884,880.078z"/>
			</g>
			<rect x="803.166" y="1079.585" style="fill:#F47458;" width="1038.936" height="765.549"/>
			<rect x="706.226" y="876.594" style="fill:#F47458;" width="1232.816" height="202.991"/>
			<g>
				<polygon style="fill:#FCDBD4;" points="864.005,876.594 821.459,876.594 706.226,983.264 706.226,1022.648 				"/>
				<polygon style="fill:#FCDBD4;" points="1225.025,876.594 1182.479,876.594 963.192,1079.585 1005.738,1079.585 				"/>
				<polygon style="fill:#FCDBD4;" points="1586.045,876.594 1543.498,876.594 1324.212,1079.585 1366.759,1079.585 				"/>
				<polygon style="fill:#FCDBD4;" points="1939.042,884.021 1939.042,876.594 1904.518,876.594 1685.232,1079.585 
					1727.778,1079.585 				"/>
			</g>
			<g>
				<polygon style="fill:#FCDBD4;" points="1444.859,1079.585 1402.313,1079.585 803.166,1634.209 803.166,1673.594 				"/>
				<polygon style="fill:#FCDBD4;" points="978.875,1845.134 1805.879,1079.585 1763.333,1079.585 936.33,1845.134 				"/>
				<polygon style="fill:#FCDBD4;" points="1083.839,1079.585 1041.292,1079.585 803.166,1300.017 803.166,1339.4 				"/>
				<polygon style="fill:#FCDBD4;" points="1842.102,1714.439 1842.102,1675.055 1658.369,1845.134 1700.915,1845.134 				"/>
				<polygon style="fill:#FCDBD4;" points="1842.102,1380.247 1842.102,1340.862 1297.35,1845.134 1339.896,1845.134 				"/>
			</g>
			<polygon style="fill:#C7C7C7;" points="803.166,1112.041 1842.102,1088.454 1842.102,1079.585 803.166,1079.585 			"/>
			<path style="fill:#F7CC7F;" d="M1347.513,876.594c-35.879-14.04-119.299-4.248-179.656,0.916
				c-50.338,25.107-121.833,100.579-157.938,187.833c71.438-95,160.771-77,161.508,53.872
				C1204.855,985.494,1339.77,886.857,1347.513,876.594z"/>
			<path style="fill:#F7CC7F;" d="M1406.627,876.594c117.776,74.73,180.886,186.776,210.346,294.849
				c36.476,140.83-23.347,225.831-34.767,266.323c190.636-252.423,201.99,0,201.99,0c65.023-154.92,47.138-313.309-47.787-422.543
				c-94.924-109.234-161.878-133.094-198.032-145.335C1502.222,857.646,1430.41,862.294,1406.627,876.594z"/>
			<g>
				<path style="fill:#13375B;" d="M945.526,465.714c8.881-21.373,17.915-42.79,40.958-53.614
					c18.648-8.759,38.13-5.462,54.701,6.998c46.95,35.306,6.04,74.204,59.484,141.153c16.607,20.803,36.707,37.6,46.657,61.978
					c13.928,34.122-2.661,50.509-29.248,66.85C990.867,767.271,924.184,606.726,926.578,570
					C928.359,542.679,939.808,479.472,945.526,465.714z"/>
				<path style="fill:#F7A491;" d="M816.87,881.833c5.364-0.849,18.389-10.178,22.986-11.027c3.564-0.657,11.271-1.824,14.555-2.316
					c4.022-15.023,24.456-96.93,26.744-120.938c2.48-26.01,20.872-138.537,20.872-138.537l47.628,8.657
					c0,0-19.78,86.563-25.249,128.539c-4.697,36.052-44.253,117.112-49.282,125.666c-0.007,0.207-0.009,0.407-0.022,0.625
					c-0.767,12.723-6.896,8.482-6.896,8.482l-9.961,2.544c0,0-35.245,3.393-37.544,4.242
					C818.402,888.618,811.506,882.681,816.87,881.833z"/>
				<path style="fill:#6A97CE;" d="M940.192,543.236c-33.669,11.416-52.814,102.95-52.814,102.95s52.824,14.747,66.358,7.013
					c0,0,15.364-68.094,20.868-65.715L940.192,543.236z"/>
				<path style="fill:#F7A491;" d="M679.748,1056.557c-10.303,27.17-15.647,53.342-16.129,56.508
					c-0.231,1.521,1.919,8.907,1.718,10.488c-20.68,28.208-50.401,34.379-75.877,36.178c12.984-12.676,32.051-24.687,32.967-28.701
					c1.458-6.392,9.302-34.846,13.158-74.278C651.431,1064.082,662.183,1058.272,679.748,1056.557z"/>
				<path style="fill:#256653;" d="M972.773,752.59l45.503,128.153c0,0-73.122,13.763-100.459,18.776
					c-27.336,5.013-180.072,11.685-183.942,14.397c-2.873,2.013-34.424,104.059-48.517,160.327
					c-15.989,3.519-43.357-0.708-57.917-5.725c7.866-80.51,36.279-208.061,45.377-221.946
					C687.637,823.956,972.773,752.59,972.773,752.59z"/>
				<path style="fill:#F7A491;" d="M795.018,1096.155c-5.029,28.62-5.375,55.329-5.254,58.529c0.058,1.538,3.554,8.39,3.653,9.979
					c-15.028,31.585-43.065,43.216-67.754,49.756c10.379-14.884,26.857-30.255,27.005-34.369c0.235-6.553,2.607-35.972-0.994-75.429
					C768.613,1108.854,778.086,1101.133,795.018,1096.155z"/>
				<path style="fill:#327F6B;" d="M1029.829,739.479l10.806,26.263c1.224,2.974,2.631,5.867,4.12,8.718
					c23.707,45.415,3.721,103.805-44.52,122.521c-0.268,0.104-0.532,0.207-0.791,0.307
					c-25.913,10.046-174.691,45.222-177.985,48.611c-2.445,2.515-14.314,108.665-17.613,166.578
					c-15.047,6.452-42.723,7.43-57.965,5.229c-7.36-80.558-3.352-211.173,2.983-226.518
					C759.181,866.197,1029.829,739.479,1029.829,739.479z"/>
				<path style="fill:#13375B;" d="M787.483,1155.576c3.961-4.375,18.504,19.702,22.138,24.84
					c4.087,5.779,2.924,10.135,2.435,11.039c-1.29,2.384-77.979,47.502-96.682,50.715c-1.767,0.303-4.828-0.813-5.598-1.495
					c-7.31-6.472,26.336-54.246,41.443-60.524C760.982,1176.092,769.661,1175.259,787.483,1155.576z"/>
				<path style="fill:#13375B;" d="M661.172,1113.931c4.711-3.556,14.484,22.822,17.091,28.549c2.933,6.442,0.974,10.503,0.324,11.3
					c-1.714,2.1-85.5,32.048-104.473,31.698c-1.792-0.032-4.59-1.703-5.219-2.518c-5.968-7.726,36.034-48.35,52.05-51.686
					C631.296,1129.117,639.979,1129.925,661.172,1113.931z"/>
				<path style="fill:#9BC1F9;" d="M972.123,542.973L972.123,542.973h-0.002c-0.87,0.006-2.118-0.3-3.394-0.701
					c-6.253-1.119-19.923-2.756-30.562,1.733c-12.938,5.458-32.987,56.46-31.794,108.811c0.48,8.003,0.965,15.168,1.378,20.164
					c3.266,39.544,14.61,113.747,15.223,114.142c15.433,9.933,109.548-22.055,115.948-30.513c6.4-8.46,9.176-117.768,12.288-122.893
					l6.117-89.391C1046.527,541.1,988.679,542.856,972.123,542.973z"/>
				<path style="fill:#F7A491;" d="M1009.86,510.054c0,0-5.995,31.011-4.796,43.243c1.2,12.232-4.572,51.656-30.464,51.786
					c-25.892,0.13-4.916-50.123-2.477-62.11c2.439-11.987,3.017-49.093,3.017-49.093L1009.86,510.054z"/>
				<path style="fill:#F47458;" d="M974.604,512.496c0.403-10.15,0.535-18.617,0.535-18.617l34.721,16.174
					c0,0-1.226,6.34-2.458,14.42C992.204,527.528,981.19,521.903,974.604,512.496z"/>
				<path style="fill:#F7A491;" d="M1022.55,424.467c0,0,13.38,7.423,18.271,23.51c4.891,16.087-0.676,57.599-35.238,67.616
					c-34.561,10.016-49.534-22.854-42.415-48.553C970.287,441.34,985.771,408.796,1022.55,424.467z"/>
				<path style="fill:#F7A491;" d="M958.846,457.08c0.677,6.902,4.486,12.178,8.507,11.784c4.021-0.395,6.731-6.311,6.055-13.212
					c-0.677-6.903-4.486-12.179-8.507-11.785C960.881,444.262,958.17,450.177,958.846,457.08z"/>
				<path style="fill:#13375B;" d="M1018.498,422.37c0,0,6.268,46.309,21.239,54.665c14.972,8.355,8.705,28.898,8.705,28.898
					s13.579-47.701,1.74-63.022C1038.345,427.593,1018.498,422.37,1018.498,422.37z"/>
				<path style="fill:#F7A491;" d="M1030.87,483.682c-4.06,6.034-4.045,13.149,0.033,15.893c4.078,2.745,10.675,0.078,14.735-5.956
					c4.06-6.034,4.045-13.149-0.033-15.893C1041.526,474.982,1034.93,477.649,1030.87,483.682z"/>
				<path style="fill:#FFFFFF;" d="M980.514,486.259l24.359,6.131c0,0-2.928,9.251-13.72,6.87
					C977.994,496.354,980.514,486.259,980.514,486.259z"/>
				<path style="fill:#F7A491;" d="M1208.838,872.59c-0.434-1.108-1.406-1.131-2.398-1.161c-9.64-0.295-19.268-0.728-28.825-2.157
					c-1.595-0.238-3.166-0.597-4.631-1.182c-2.659-1.062-5.284-1.037-7.968-0.293c-1.454,0.402-2.93,0.477-4.43,0.47
					c-4.846-0.021-18.671-4.725-25.774-5.966c-1.622-0.283-2.91-1.51-3.313-3.107c-6.987-27.634-21.975-89.633-23.918-110.021
					c-2.485-26.072-20.489-143.619-20.489-143.619l-48.172,13.434c0,0,19.827,86.768,25.31,128.841
					c4.232,32.488,36.701,101.428,46.879,121.251c4.973,14.755,16.128,15.166,18.72,15.482c1.482,0.181,2.844,0.909,3.817,2.043
					c1.759,2.049,3.772,3.832,6.076,5.287c1.708,1.079,3.024,2.482,4.15,4.126c2.046,2.989,3.875,6.109,5.687,9.243
					c1.201,2.076,2.458,2.733,4.241,2.244c1.912-0.524,2.823-1.937,2.786-4.266c-0.054-3.44-1.152-6.554-2.88-9.489
					c-1.619-2.75-1.5-4.349,0.386-6.878c1.083-1.454,2.198-2.865,3.619-4.02c1.446-1.177,2.965-2.069,4.926-1.794
					c3.462,0.864,6.954,1.565,10.505,1.958l2.915,0.595c0.102,0.015,1.59,0.337,1.59,0.337c0.246,0.064,5.372,0.625,7.125,0.627
					c1.411,0.002,3.694,0.096,5.637,0.189c1.758,0.085,5.475-0.833,5.603-0.836c1.711-0.038,3.224-0.657,4.5-1.804
					c0.522-0.468,1.025-0.996,0.76-1.793c-0.245-0.732-0.819-1.043-1.565-1.178c-1.158-0.207-7.139-0.936-7.073-1.189
					c1.777,0,7.34-0.131,9.116-0.178c2.393-0.064,4.468-0.921,6.118-2.692C1208.519,874.396,1209.274,873.704,1208.838,872.59z"/>
				<path style="fill:#9BC1F9;" d="M1057.91,544.133c23.775-4.323,43.39,102.053,43.39,102.053s-52.824,14.747-66.359,7.013
					c0,0-15.363-68.094-20.868-65.715L1057.91,544.133z"/>
			</g>
		</g>
		<path style="fill:#13375B;" d="M2427.665,1836.465H287.976c-2.675,0-4.844,3.006-4.844,6.716l0,0c0,3.709,2.169,6.717,4.844,6.717
			h2139.689c2.675,0,4.844-3.008,4.844-6.717l0,0C2432.509,1839.471,2430.34,1836.465,2427.665,1836.465z"/>
	</g>
</g>
</svg>
