<?xml version="1.0" encoding="utf-8"?>
<!-- Generator: Adobe Illustrator 27.5.0, SVG Export Plug-In . SVG Version: 6.00 Build 0)  -->
<svg version="1.1" xmlns="http://www.w3.org/2000/svg" xmlns:xlink="http://www.w3.org/1999/xlink" x="0px" y="0px"
	 viewBox="0 0 750 500" style="enable-background:new 0 0 750 500;" xml:space="preserve">
<g id="BACKGROUND">
	<rect style="fill:#FFF7F1;" width="750" height="500"/>
</g>
<g id="OBJECTS">
	<g>
		<g>
			<polygon style="fill:#F7424F;" points="624.701,500 750,250.199 750,500 			"/>
			<g>
				<g>
					<rect x="249.88" y="374.701" style="fill:#FFB851;" width="125.299" height="125.299"/>
					<rect x="311.88" y="374.701" style="fill:#FFD187;" width="63.299" height="125.299"/>
				</g>
				<g>
					<circle style="fill:#F7424F;" cx="312.53" cy="437.35" r="36.071"/>
					<path style="fill:#E22D2D;" d="M311.88,401.296c-19.621,0.348-35.422,16.351-35.422,36.055
						c0,19.704,15.801,35.707,35.422,36.055V401.296z"/>
				</g>
			</g>
			<g>
				<rect x="499.761" y="374.701" style="fill:#57959A;" width="125.299" height="125.299"/>
				<g>
					<polyline style="fill:#F7424F;" points="625.06,375.1 499.761,500 374.98,374.94 					"/>
					<g>
						<defs>
							<polyline id="SVGID_1_" points="625.06,375.1 499.761,500 374.98,374.94 							"/>
						</defs>
						<clipPath id="SVGID_00000065757480458093336010000012764034558045032611_">
							<use xlink:href="#SVGID_1_"  style="overflow:visible;"/>
						</clipPath>
						<g style="clip-path:url(#SVGID_00000065757480458093336010000012764034558045032611_);">
							<rect x="378.343" y="374.328" style="fill:#FFF4ED;" width="3.5" height="125.672"/>
							<rect x="386.02" y="374.328" style="fill:#FFF4ED;" width="3.5" height="125.672"/>
							<rect x="393.698" y="374.328" style="fill:#FFF4ED;" width="3.5" height="125.672"/>
							<rect x="401.375" y="374.328" style="fill:#FFF4ED;" width="3.5" height="125.672"/>
							<rect x="409.053" y="374.328" style="fill:#FFF4ED;" width="3.5" height="125.672"/>
							<rect x="416.73" y="374.328" style="fill:#FFF4ED;" width="3.5" height="125.672"/>
							<rect x="424.408" y="374.328" style="fill:#FFF4ED;" width="3.5" height="125.672"/>
							<rect x="432.085" y="374.328" style="fill:#FFF4ED;" width="3.5" height="125.672"/>
							<rect x="439.763" y="374.328" style="fill:#FFF4ED;" width="3.5" height="125.672"/>
							<rect x="447.44" y="374.328" style="fill:#FFF4ED;" width="3.5" height="125.672"/>
							<rect x="455.118" y="374.328" style="fill:#FFF4ED;" width="3.5" height="125.672"/>
							<rect x="462.795" y="374.328" style="fill:#FFF4ED;" width="3.5" height="125.672"/>
							<rect x="470.473" y="374.328" style="fill:#FFF4ED;" width="3.5" height="125.672"/>
							<rect x="478.15" y="374.328" style="fill:#FFF4ED;" width="3.5" height="125.672"/>
							<rect x="485.827" y="374.328" style="fill:#FFF4ED;" width="3.5" height="125.672"/>
							<rect x="493.505" y="374.328" style="fill:#FFF4ED;" width="3.5" height="125.672"/>
							<rect x="501.182" y="374.328" style="fill:#FFF4ED;" width="3.5" height="125.672"/>
							<rect x="508.86" y="374.328" style="fill:#FFF4ED;" width="3.5" height="125.672"/>
							<rect x="516.537" y="374.328" style="fill:#FFF4ED;" width="3.5" height="125.672"/>
							<rect x="524.215" y="374.328" style="fill:#FFF4ED;" width="3.5" height="125.672"/>
							<rect x="531.892" y="374.328" style="fill:#FFF4ED;" width="3.5" height="125.672"/>
							<rect x="539.57" y="374.328" style="fill:#FFF4ED;" width="3.5" height="125.672"/>
							<rect x="547.247" y="374.328" style="fill:#FFF4ED;" width="3.5" height="125.672"/>
							<rect x="554.925" y="374.328" style="fill:#FFF4ED;" width="3.5" height="125.672"/>
							<rect x="562.602" y="374.328" style="fill:#FFF4ED;" width="3.5" height="125.672"/>
							<rect x="570.28" y="374.328" style="fill:#FFF4ED;" width="3.5" height="125.672"/>
							<rect x="577.957" y="374.328" style="fill:#FFF4ED;" width="3.5" height="125.672"/>
							<rect x="585.635" y="374.328" style="fill:#FFF4ED;" width="3.5" height="125.672"/>
							<rect x="593.312" y="374.328" style="fill:#FFF4ED;" width="3.5" height="125.672"/>
							<rect x="600.99" y="374.328" style="fill:#FFF4ED;" width="3.5" height="125.672"/>
							<rect x="608.667" y="374.328" style="fill:#FFF4ED;" width="3.5" height="125.672"/>
							<rect x="616.345" y="374.328" style="fill:#FFF4ED;" width="3.5" height="125.672"/>
						</g>
					</g>
				</g>
			</g>
		</g>
		<g>
			<g>
				<rect x="624.701" y="124.9" style="fill:#FFD187;" width="125.299" height="125.299"/>
				<polygon style="fill:#FFB851;" points="750,250.199 624.701,124.9 750,124.9 				"/>
			</g>
			<g>
				<rect x="124.94" y="124.9" style="fill:#F7424F;" width="125.299" height="125.299"/>
				<polygon style="fill:#E22D2D;" points="250.239,250.199 124.94,124.9 250.239,124.9 				"/>
			</g>
			<rect x="499.761" y="249.801" style="fill:#FFD187;" width="125.299" height="125.299"/>
			<rect x="499.761" y="124.558" style="fill:#357993;" width="125.299" height="125.641"/>
			<g>
				<polygon style="fill:#57959A;" points="0,250.199 124.94,124.9 0,124.9 				"/>
				<polygon style="fill:#357993;" points="124.94,250.199 124.94,124.9 0,124.9 				"/>
				<polygon style="fill:#FFD187;" points="124.94,124.9 0,250.199 124.94,250.199 				"/>
				<polygon style="fill:#FFB851;" points="61.906,187.934 0,250.199 124.94,250.199 				"/>
			</g>
			<g>
				<g>
					<g>
						
							<rect x="288.085" y="162.255" transform="matrix(0.7071 -0.7071 0.7071 0.7071 -66.6986 338.9754)" style="fill:#FFD187;" width="175.49" height="175.49"/>
						<polygon style="fill:#FFB851;" points="375.83,125.91 375.83,374.09 251.74,250 						"/>
					</g>
					<polygon style="fill:#F7424F;" points="374.821,125.299 500.12,125.299 500.12,250.199 					"/>
				</g>
				
					<ellipse transform="matrix(0.9724 -0.2334 0.2334 0.9724 -30.0003 71.4777)" style="fill:#357993;" cx="287.081" cy="162.527" rx="36.071" ry="36.071"/>
				<circle style="fill:#357993;" cx="462.747" cy="338.194" r="36.071"/>
			</g>
		</g>
		<g>
			<g>
				<g>
					
						<rect x="143.044" y="18.322" transform="matrix(0.7071 -0.7071 0.7071 0.7071 10.4894 151.0596)" style="fill:#FFD187;" width="89.091" height="89.091"/>
					<polygon style="fill:#FFB851;" points="187.59,-0.129 250.587,62.868 187.59,125.865 					"/>
				</g>
				<g>
					
						<rect x="165.669" y="40.948" transform="matrix(0.7071 -0.7071 0.7071 0.7071 10.4894 151.0596)" style="fill:#FFB851;" width="43.841" height="43.841"/>
					<polygon style="fill:#FFD187;" points="187.59,31.868 218.59,62.868 187.59,93.868 					"/>
				</g>
			</g>
			<g>
				
					<ellipse transform="matrix(0.1929 -0.9812 0.9812 0.1929 498.9022 667.6671)" style="fill:#F7424F;" cx="655.284" cy="30.583" rx="30.583" ry="30.583"/>
				
					<ellipse transform="matrix(0.2268 -0.9739 0.9739 0.2268 525.6558 723.2802)" style="fill:#E22D2D;" cx="718.349" cy="30.583" rx="30.583" ry="30.583"/>
				
					<ellipse transform="matrix(0.8388 -0.5445 0.5445 0.8388 55.5098 371.6266)" style="fill:#E22D2D;" cx="655.284" cy="92.079" rx="30.583" ry="30.583"/>
				
					<ellipse transform="matrix(0.7071 -0.7071 0.7071 0.7071 145.2896 534.9191)" style="fill:#F7424F;" cx="718.349" cy="92.079" rx="30.583" ry="30.583"/>
			</g>
			<g>
				<rect x="249.88" style="fill:#57959A;" width="125.299" height="125.299"/>
				<g>
					<rect x="253.378" style="fill:#FFF4ED;" width="3.5" height="127.055"/>
					<rect x="260.978" style="fill:#FFF4ED;" width="3.5" height="127.055"/>
					<rect x="268.578" style="fill:#FFF4ED;" width="3.5" height="127.055"/>
					<rect x="276.178" style="fill:#FFF4ED;" width="3.5" height="127.055"/>
					<rect x="283.779" style="fill:#FFF4ED;" width="3.5" height="127.055"/>
					<rect x="291.379" style="fill:#FFF4ED;" width="3.5" height="127.055"/>
					<rect x="298.978" style="fill:#FFF4ED;" width="3.5" height="127.055"/>
					<rect x="306.579" style="fill:#FFF4ED;" width="3.5" height="127.055"/>
					<rect x="314.179" style="fill:#FFF4ED;" width="3.5" height="127.055"/>
					<rect x="321.779" style="fill:#FFF4ED;" width="3.5" height="127.055"/>
					<rect x="329.379" style="fill:#FFF4ED;" width="3.5" height="127.055"/>
					<rect x="336.979" style="fill:#FFF4ED;" width="3.5" height="127.055"/>
					<rect x="344.579" style="fill:#FFF4ED;" width="3.5" height="127.055"/>
					<rect x="352.179" style="fill:#FFF4ED;" width="3.5" height="127.055"/>
					<rect x="359.779" style="fill:#FFF4ED;" width="3.5" height="127.055"/>
					<rect x="367.379" style="fill:#FFF4ED;" width="3.5" height="127.055"/>
				</g>
			</g>
			<g>
				<rect x="499.761" y="-0.175" style="fill:#57959A;" width="125.299" height="250.374"/>
				<g>
					<rect x="503.379" y="125" style="fill:#FFF4ED;" width="3.5" height="125.555"/>
					<rect x="510.979" y="125" style="fill:#FFF4ED;" width="3.5" height="125.555"/>
					<rect x="518.579" y="125" style="fill:#FFF4ED;" width="3.5" height="125.555"/>
					<rect x="526.179" y="125" style="fill:#FFF4ED;" width="3.5" height="125.555"/>
					<rect x="533.779" y="125" style="fill:#FFF4ED;" width="3.5" height="125.555"/>
					<rect x="541.379" y="125" style="fill:#FFF4ED;" width="3.5" height="125.555"/>
					<rect x="548.979" y="125" style="fill:#FFF4ED;" width="3.5" height="125.555"/>
					<rect x="556.579" y="125" style="fill:#FFF4ED;" width="3.5" height="125.555"/>
					<rect x="564.179" y="125" style="fill:#FFF4ED;" width="3.5" height="123.554"/>
					<rect x="571.779" y="125" style="fill:#FFF4ED;" width="3.5" height="123.554"/>
					<rect x="579.379" y="125" style="fill:#FFF4ED;" width="3.5" height="123.554"/>
					<rect x="586.979" y="125" style="fill:#FFF4ED;" width="3.5" height="123.554"/>
					<rect x="594.579" y="125" style="fill:#FFF4ED;" width="3.5" height="123.554"/>
					<rect x="602.18" y="125" style="fill:#FFF4ED;" width="3.5" height="123.554"/>
					<rect x="609.779" y="125" style="fill:#FFF4ED;" width="3.5" height="123.554"/>
					<rect x="617.38" y="125" style="fill:#FFF4ED;" width="3.5" height="123.554"/>
				</g>
			</g>
			<g>
				<circle style="fill:#F7424F;" cx="437.47" cy="62.65" r="62.649"/>
				<path style="fill:#E22D2D;" d="M374.821,62.625c0,0.008-0.001,0.016-0.001,0.024c0,34.6,28.049,62.65,62.65,62.65
					s62.65-28.049,62.65-62.65c0-0.008-0.001-0.016-0.001-0.024H374.821z"/>
			</g>
			<g>
				<g>
					<rect y="26.055" style="fill:#F7424F;" width="125.299" height="99.244"/>
					<g>
						<defs>
							<rect id="SVGID_00000035495047840519285150000008363151731601930895_" y="64.222" width="125.299" height="60.577"/>
						</defs>
						<clipPath id="SVGID_00000011001293311751745260000008183389023567558035_">
							<use xlink:href="#SVGID_00000035495047840519285150000008363151731601930895_"  style="overflow:visible;"/>
						</clipPath>
						<g style="clip-path:url(#SVGID_00000011001293311751745260000008183389023567558035_);">
							<rect x="4.045" y="45.044" style="fill:#FFF4ED;" width="3.5" height="125.672"/>
							<rect x="11.645" y="45.044" style="fill:#FFF4ED;" width="3.5" height="125.672"/>
							<rect x="19.245" y="45.044" style="fill:#FFF4ED;" width="3.5" height="125.672"/>
							<rect x="26.845" y="45.044" style="fill:#FFF4ED;" width="3.5" height="125.672"/>
							<rect x="34.445" y="45.044" style="fill:#FFF4ED;" width="3.5" height="125.672"/>
							<rect x="42.045" y="45.044" style="fill:#FFF4ED;" width="3.5" height="125.672"/>
							<rect x="49.645" y="45.044" style="fill:#FFF4ED;" width="3.5" height="125.672"/>
							<rect x="57.245" y="45.044" style="fill:#FFF4ED;" width="3.5" height="125.672"/>
							<rect x="64.845" y="45.044" style="fill:#FFF4ED;" width="3.5" height="125.672"/>
							<rect x="72.445" y="45.044" style="fill:#FFF4ED;" width="3.5" height="125.672"/>
							<rect x="80.045" y="45.044" style="fill:#FFF4ED;" width="3.5" height="125.672"/>
							<rect x="87.645" y="45.044" style="fill:#FFF4ED;" width="3.5" height="125.672"/>
							<rect x="95.245" y="45.044" style="fill:#FFF4ED;" width="3.5" height="125.672"/>
							<rect x="102.845" y="45.044" style="fill:#FFF4ED;" width="3.5" height="125.672"/>
							<rect x="110.446" y="45.044" style="fill:#FFF4ED;" width="3.5" height="125.672"/>
							<rect x="118.046" y="45.044" style="fill:#FFF4ED;" width="3.5" height="125.672"/>
						</g>
					</g>
				</g>
				<g>
					<rect style="fill:#57959A;" width="125.299" height="64.299"/>
					<rect style="fill:#357993;" width="61.966" height="64.299"/>
				</g>
			</g>
		</g>
		<g>
			<g>
				<g>
					
						<ellipse transform="matrix(0.7071 -0.7071 0.7071 0.7071 -228.5246 198.4921)" style="fill:#F7424F;" cx="125.339" cy="375.1" rx="124.9" ry="124.9"/>
					<circle style="fill:#FFF4ED;" cx="123.039" cy="375.1" r="60.679"/>
					<g>
						<defs>
							
								<ellipse id="SVGID_00000091013103933286782840000000177878978806818230_" transform="matrix(0.7071 -0.7071 0.7071 0.7071 -228.5246 198.4921)" cx="125.339" cy="375.1" rx="124.9" ry="124.9"/>
						</defs>
						<clipPath id="SVGID_00000013910145809880538420000013478494662214103186_">
							<use xlink:href="#SVGID_00000091013103933286782840000000177878978806818230_"  style="overflow:visible;"/>
						</clipPath>
						<g style="clip-path:url(#SVGID_00000013910145809880538420000013478494662214103186_);">
							<defs>
								<rect id="SVGID_00000044176344670533475820000008057558953286683835_" y="250.212" width="125.299" height="250.435"/>
							</defs>
							<clipPath id="SVGID_00000002376596176238303010000005504245685827647932_">
								<use xlink:href="#SVGID_00000044176344670533475820000008057558953286683835_"  style="overflow:visible;"/>
							</clipPath>
							<g style="clip-path:url(#SVGID_00000002376596176238303010000005504245685827647932_);">
								<rect x="4.045" y="170.931" style="fill:#FFF4ED;" width="3.5" height="519.545"/>
								<rect x="11.645" y="170.931" style="fill:#FFF4ED;" width="3.5" height="519.545"/>
								<rect x="19.245" y="170.931" style="fill:#FFF4ED;" width="3.5" height="519.545"/>
								<rect x="26.845" y="170.931" style="fill:#FFF4ED;" width="3.5" height="519.545"/>
								<rect x="34.445" y="170.931" style="fill:#FFF4ED;" width="3.5" height="519.545"/>
								<rect x="42.045" y="170.931" style="fill:#FFF4ED;" width="3.5" height="519.545"/>
								<rect x="49.645" y="170.931" style="fill:#FFF4ED;" width="3.5" height="519.545"/>
								<rect x="57.245" y="170.931" style="fill:#FFF4ED;" width="3.5" height="519.545"/>
								<rect x="64.845" y="170.931" style="fill:#FFF4ED;" width="3.5" height="519.545"/>
								<rect x="72.445" y="170.931" style="fill:#FFF4ED;" width="3.5" height="519.545"/>
								<rect x="80.045" y="170.931" style="fill:#FFF4ED;" width="3.5" height="519.545"/>
								<rect x="87.645" y="170.931" style="fill:#FFF4ED;" width="3.5" height="519.545"/>
								<rect x="95.245" y="170.931" style="fill:#FFF4ED;" width="3.5" height="519.545"/>
								<rect x="102.845" y="170.931" style="fill:#FFF4ED;" width="3.5" height="519.545"/>
								<rect x="110.446" y="170.931" style="fill:#FFF4ED;" width="3.5" height="519.545"/>
								<rect x="118.046" y="170.931" style="fill:#FFF4ED;" width="3.5" height="519.545"/>
							</g>
						</g>
					</g>
				</g>
				<g>
					<path style="fill:#FFD187;" d="M124.889,375.1v124.888c0.325,0.005,0.649,0.012,0.975,0.012
						c68.691,0,124.375-55.92,124.375-124.9H124.889z"/>
					<g>
						<path style="fill:#57959A;" d="M125.339,250.199c-0.133,0-0.265,0.005-0.399,0.005V375.1h125.299
							C250.239,306.119,194.319,250.199,125.339,250.199z"/>
						<path style="fill:#357993;" d="M125.109,375.1h125.13c0-34.482-14.003-65.699-36.643-88.301L125.109,375.1z"/>
					</g>
					<path style="fill:#F7424F;" d="M124.977,375.069h125.263c0,34.482-14.018,65.699-36.682,88.301L124.977,375.069z"/>
				</g>
			</g>
			<g>
				<g>
					<circle style="fill:#57959A;" cx="624.961" cy="250.14" r="62.649"/>
					<g>
						<defs>
							<circle id="SVGID_00000131339368525122545830000009946913102741699494_" cx="624.961" cy="250.14" r="62.649"/>
						</defs>
						<clipPath id="SVGID_00000022523521568607299320000018414760729203540636_">
							<use xlink:href="#SVGID_00000131339368525122545830000009946913102741699494_"  style="overflow:visible;"/>
						</clipPath>
						<g style="clip-path:url(#SVGID_00000022523521568607299320000018414760729203540636_);">
							<rect x="628.379" y="250.333" style="fill:#FFF7F1;" width="3.5" height="125.555"/>
							<rect x="635.979" y="250.333" style="fill:#FFF7F1;" width="3.5" height="125.555"/>
							<rect x="643.579" y="250.333" style="fill:#FFF7F1;" width="3.5" height="125.555"/>
							<rect x="651.179" y="250.333" style="fill:#FFF7F1;" width="3.5" height="125.555"/>
							<rect x="658.779" y="250.333" style="fill:#FFF7F1;" width="3.5" height="125.555"/>
							<rect x="666.379" y="250.333" style="fill:#FFF7F1;" width="3.5" height="125.555"/>
							<rect x="673.979" y="250.333" style="fill:#FFF7F1;" width="3.5" height="125.555"/>
							<rect x="681.579" y="250.333" style="fill:#FFF7F1;" width="3.5" height="125.555"/>
						</g>
					</g>
				</g>
				<g>
					<path style="fill:#F7424F;" d="M562.311,250.14c0,34.6,28.049,62.65,62.649,62.65c0.033,0,0.066-0.002,0.099-0.003v-62.986
						h-62.74C562.319,249.914,562.311,250.026,562.311,250.14z"/>
					<path style="fill:#FFF4ED;" d="M624.961,187.491c-0.087,0-0.173,0.006-0.26,0.007v62.702h62.908
						c0-0.02,0.001-0.039,0.001-0.059C687.61,215.54,659.561,187.491,624.961,187.491z"/>
					<path style="fill:#FFD187;" d="M625.06,187.493c-0.033,0-0.066-0.003-0.099-0.003c-34.6,0-62.649,28.049-62.649,62.65
						c0,0.02,0.002,0.039,0.002,0.059h62.747V187.493z"/>
				</g>
			</g>
		</g>
	</g>
</g>
</svg>
