<?xml version="1.0" encoding="utf-8"?>
<!-- Generator: Adobe Illustrator 27.5.0, SVG Export Plug-In . SVG Version: 6.00 Build 0)  -->
<svg version="1.1" xmlns="http://www.w3.org/2000/svg" xmlns:xlink="http://www.w3.org/1999/xlink" x="0px" y="0px"
	 viewBox="0 0 500 500" style="enable-background:new 0 0 500 500;" xml:space="preserve">
<g id="BACKGROUND">
	<polygon style="fill-rule:evenodd;clip-rule:evenodd;fill:#FFF6F2;" points="0,500 0,0 500,0 500,500 0,500 0,500 	"/>
</g>
<g id="OBJECTS">
	<g>
		<g>
			<polygon style="fill-rule:evenodd;clip-rule:evenodd;fill:#FFEBE3;" points="0,383.752 0,0 500,0 500,383.752 0,383.752 
				0,383.752 			"/>
			<g>
				<g>
					<polygon style="fill-rule:evenodd;clip-rule:evenodd;fill:#F2F2FF;" points="45.856,0 426.542,0 426.542,380.112 
						45.856,380.112 45.856,0 					"/>
					<path style="fill:#FFFFFF;" d="M430.159,0l-2.977,383.752c-57.018,0.167-114.035,0.334-171.053,0.5l-0.037,4.846l-7.471-0.029
						l0.037-4.795l-206.553,0.603V0h7.5v377.385l199.109-0.582L251.591,0h7.471l-2.876,376.781l163.583-0.478L422.688,0H430.159
						L430.159,0z"/>
				</g>
				<g>
					<g>
						<path d="M321.067,213.591c0.249-0.329,0.717-0.393,1.046-0.144c0.328,0.249,0.393,0.718,0.144,1.046l-7.367,9.689
							c-0.249,0.328-0.717,0.393-1.046,0.144c-0.329-0.249-0.393-0.718-0.144-1.046L321.067,213.591L321.067,213.591z"/>
						<path d="M286.507,58.934c0.249-0.328,0.717-0.393,1.046-0.144c0.328,0.249,0.393,0.717,0.144,1.046l-7.367,9.688
							c-0.249,0.329-0.717,0.393-1.046,0.144c-0.328-0.249-0.393-0.718-0.144-1.046L286.507,58.934L286.507,58.934z"/>
						<path d="M377.864,175.235c0.249-0.329,0.717-0.393,1.046-0.144c0.328,0.249,0.393,0.717,0.144,1.046l-2.51,3.301
							c-0.249,0.329-0.717,0.393-1.046,0.144c-0.328-0.249-0.393-0.717-0.144-1.046L377.864,175.235L377.864,175.235z"/>
						<path d="M342.002,65.096c0.249-0.328,0.717-0.393,1.046-0.144c0.329,0.249,0.393,0.717,0.144,1.046l-2.51,3.301
							c-0.249,0.328-0.717,0.393-1.046,0.144c-0.328-0.249-0.393-0.718-0.144-1.046L342.002,65.096L342.002,65.096z"/>
						<path d="M181.102,86.193c0.249-0.329,0.717-0.393,1.046-0.144c0.328,0.249,0.393,0.717,0.144,1.046l-7.367,9.688
							c-0.249,0.328-0.717,0.393-1.046,0.144c-0.328-0.249-0.393-0.717-0.144-1.046L181.102,86.193L181.102,86.193z"/>
						<path d="M185.643,52.136c0.249-0.329,0.717-0.393,1.046-0.144c0.328,0.249,0.393,0.717,0.144,1.046l-7.367,9.689
							c-0.249,0.329-0.717,0.393-1.046,0.144c-0.328-0.249-0.393-0.718-0.144-1.046L185.643,52.136L185.643,52.136z"/>
						<path d="M161.527,162.791c0.249-0.329,0.717-0.393,1.046-0.144c0.328,0.249,0.393,0.717,0.143,1.046l-7.367,9.689
							c-0.249,0.328-0.717,0.393-1.046,0.144c-0.328-0.249-0.393-0.717-0.144-1.046L161.527,162.791L161.527,162.791z"/>
						<path d="M230.119,83.65c0.249-0.328,0.717-0.393,1.046-0.144c0.328,0.249,0.393,0.717,0.144,1.046l-7.367,9.689
							c-0.249,0.329-0.717,0.393-1.046,0.144c-0.328-0.249-0.393-0.717-0.144-1.046L230.119,83.65L230.119,83.65z"/>
						<path d="M340.075,125.462c0.249-0.328,0.717-0.393,1.046-0.144c0.328,0.249,0.393,0.717,0.144,1.046l-7.367,9.689
							c-0.249,0.328-0.717,0.393-1.046,0.144c-0.328-0.249-0.393-0.717-0.144-1.046L340.075,125.462L340.075,125.462z"/>
						<path d="M321.931,268.023c0.249-0.328,0.717-0.393,1.046-0.144c0.329,0.249,0.393,0.717,0.144,1.046l-7.367,9.689
							c-0.249,0.329-0.717,0.393-1.046,0.144c-0.328-0.249-0.393-0.717-0.144-1.046L321.931,268.023L321.931,268.023z"/>
						<path d="M146.538,261.975c0.249-0.328,0.717-0.393,1.046-0.143c0.328,0.249,0.393,0.717,0.144,1.046l-7.367,9.689
							c-0.249,0.328-0.717,0.393-1.046,0.144c-0.328-0.249-0.393-0.717-0.144-1.046L146.538,261.975L146.538,261.975z"/>
						<path d="M404.012,122.87c0.249-0.328,0.717-0.393,1.046-0.144c0.328,0.249,0.393,0.717,0.144,1.046l-7.367,9.689
							c-0.249,0.328-0.717,0.393-1.046,0.144c-0.328-0.249-0.393-0.718-0.143-1.046L404.012,122.87L404.012,122.87z"/>
					</g>
					<g>
						<path style="fill-rule:evenodd;clip-rule:evenodd;fill:#EBC78D;" d="M284.324,131.678l3.166,1.801l3.009,2.849l6.395-1.505
							l-1.891,5.771l1.457,1.379l1.268,2.675l2.726-2.239l3.336-1.763l1.941-4.395l2.578,2.009l3.013-5.433l-2.219-5.026
							c0.022-0.11,0.045-0.221,0.068-0.333c1.864-0.121,3.364-0.119,4.155,0.078c0.091,0.023,0.181-0.032,0.205-0.122
							c0.022-0.09-0.033-0.182-0.123-0.204c-0.827-0.206-2.378-0.209-4.296-0.084l-0.059-0.079l0.452-5.184l-4.604-4.169
							l-1.791,2.733l-3.257-3.535l-3.727-0.59l-3.302-1.24l-0.338,2.94l-0.934,1.775l3.651,4.854l-6.538,0.64l-1.929,3.668
							L284.324,131.678L284.324,131.678L284.324,131.678z"/>
						<path style="fill-rule:evenodd;clip-rule:evenodd;fill:#ED7C53;" d="M337.069,164.925c2.502-3.16,7.951-8.983,10.517-10.188
							c0.637-0.3,1.244-0.51,1.831-0.646c3.597-0.822,6.229,1.298,7.45,4.448c0.093,0.247,0.18,0.499,0.258,0.755l0.014,0.046
							c1.087-0.024,2.111,0.026,3.051,0.154l0,0c0.116,0.018,0.2,0.123,0.184,0.239c-0.016,0.116-0.125,0.201-0.24,0.183
							c-0.886-0.121-1.849-0.17-2.871-0.153c0.704,2.468,1.078,5.293-2.996,7.548C350.865,169.195,343.713,166.13,337.069,164.925
							L337.069,164.925L337.069,164.925z"/>
						<path style="fill-rule:evenodd;clip-rule:evenodd;fill:#ED7C53;" d="M363.879,83.526l-0.165,3.368l0.077,5.065l0.973,3.92
							l-4.097,1.406l-2.054,0.374l3.243,3.424l2.61,2.647l5.619,1.91l6.115-0.306c0.666,1.508,1.11,2.71,1.172,3.341
							c0.012,0.118,0.116,0.205,0.235,0.193c0.117-0.012,0.204-0.118,0.192-0.236c-0.068-0.681-0.542-1.963-1.248-3.558l3.287-5.03
							l1.188-5.815l-0.969-3.589l-1.318-4.528l-1.36,1.585l-3.284,2.826l-2.892-2.821l-4.33-2.622L363.879,83.526L363.879,83.526
							L363.879,83.526z"/>
						<path style="fill-rule:evenodd;clip-rule:evenodd;fill:#F26E3F;" d="M356.432,54.636c1.868,2.626,5.984,7.5,7.982,8.569
							c0.494,0.265,0.972,0.457,1.437,0.587c2.839,0.806,5.025-0.779,6.131-3.246c0.067-0.153,0.131-0.31,0.192-0.469
							c0.676,0.312,1.375,0.677,2.103,1.113c0.101,0.06,0.23,0.026,0.293-0.074c0.059-0.102,0.025-0.233-0.075-0.293
							c-0.754-0.451-1.477-0.828-2.175-1.149c0.679-1.962,1.153-4.241-2.055-6.24C367.626,51.791,361.788,53.947,356.432,54.636
							L356.432,54.636L356.432,54.636z"/>
						<path style="fill-rule:evenodd;clip-rule:evenodd;fill:#F26E3F;" d="M283.606,204.988c0.775-4.639,3.057-13.663,4.996-16.342
							c0.482-0.661,0.984-1.222,1.508-1.688c3.157-2.826,6.971-2.212,9.973,0.221c0.558-0.997,1.063-2.022,1.515-3.076
							c0.046-0.108,0.172-0.159,0.281-0.111c0.109,0.046,0.159,0.171,0.113,0.281l0,0c-0.469,1.093-0.995,2.155-1.576,3.187
							c0.17,0.149,0.338,0.304,0.504,0.464c2.245,2.191,4.678,4.906,1.604,9.804C300.107,201.568,291.073,202.471,283.606,204.988
							L283.606,204.988L283.606,204.988z"/>
						<path style="fill-rule:evenodd;clip-rule:evenodd;fill:#EBC78D;" d="M404.236,54.442l1.085-0.121
							c1.406-0.159,5.329-0.014,7.698-3.052c2.753-3.532,1.642-9.059-4.041-8.729c0.341-0.668,0.69-1.327,1.042-1.971
							c0.057-0.102,0.02-0.233-0.085-0.289c-0.104-0.057-0.233-0.018-0.289,0.086c-0.366,0.667-0.728,1.35-1.081,2.043
							c-4.065-4.058-8.574-0.631-8.836,3.854c-0.224,3.845,2.819,6.325,3.773,7.373L404.236,54.442L404.236,54.442L404.236,54.442z"
							/>
					</g>
				</g>
			</g>
			<g>
				<path style="fill-rule:evenodd;clip-rule:evenodd;fill:#EBC78D;" d="M146.391,0H0v400.588
					c12.695-1.509,26.075,3.207,38.038-1.213c11.637-4.299,20.647,5.728,52.629-0.863C116.763,279.387,141.389,108.115,146.391,0
					L146.391,0z"/>
				<g>
					<path d="M96.582,67.967c0.026-0.412,0.382-0.726,0.794-0.7c0.412,0.026,0.726,0.381,0.7,0.794
						c-2.757,42.8-8.13,95.187-15.265,148.536c-6.721,50.252-15.007,101.353-24.143,146.092c-0.083,0.404-0.477,0.665-0.882,0.583
						c-0.404-0.082-0.666-0.477-0.583-0.882c9.129-44.704,17.408-95.769,24.125-145.986
						C88.457,163.104,93.826,110.752,96.582,67.967L96.582,67.967z"/>
					<path d="M73.141,38.841c-0.003-0.412,0.329-0.75,0.741-0.753c0.413-0.003,0.75,0.329,0.753,0.741
						c0.201,22.903-0.288,50.923-1.397,79.446c-1.046,26.91-2.642,54.246-4.728,78.143c-0.036,0.412-0.399,0.718-0.812,0.683
						c-0.412-0.036-0.718-0.399-0.683-0.812c2.09-23.939,3.685-51.243,4.728-78.067C72.853,89.707,73.342,61.71,73.141,38.841
						L73.141,38.841z"/>
				</g>
			</g>
		</g>
		<g>
			<g>
				<g>
					<g>
						<path style="fill-rule:evenodd;clip-rule:evenodd;fill:#ED7C53;" d="M367.524,269.217
							C360.469,218.312,384.781,245.247,367.524,269.217L367.524,269.217z"/>
						<path style="fill-rule:evenodd;clip-rule:evenodd;fill:#EBC78D;" d="M372.254,282.297
							C376.073,231.047,394.17,262.497,372.254,282.297L372.254,282.297z"/>
						<path style="fill-rule:evenodd;clip-rule:evenodd;fill:#ED7C53;" d="M360.874,254.668
							C351.638,204.113,377.085,229.979,360.874,254.668L360.874,254.668z"/>
						<path style="fill-rule:evenodd;clip-rule:evenodd;fill:#F26E3F;" d="M356.073,246.124
							C319.293,210.231,355.013,216.608,356.073,246.124L356.073,246.124z"/>
						<path style="fill-rule:evenodd;clip-rule:evenodd;fill:#ED7C53;" d="M358.198,249.736
							C306.817,250.765,336.42,229.784,358.198,249.736L358.198,249.736z"/>
						<path style="fill-rule:evenodd;clip-rule:evenodd;fill:#EBC78D;" d="M363.958,260.959
							C312.985,267.504,340.162,243.463,363.958,260.959L363.958,260.959z"/>
						<path style="fill-rule:evenodd;clip-rule:evenodd;fill:#F26E3F;" d="M369.38,274.019
							C318.035,271.84,348.89,252.747,369.38,274.019L369.38,274.019z"/>
						<path style="fill-rule:evenodd;clip-rule:evenodd;fill:#ED7C53;" d="M378.572,306.173
							C371.517,255.269,395.829,282.204,378.572,306.173L378.572,306.173z"/>
						<path style="fill-rule:evenodd;clip-rule:evenodd;fill:#F26E3F;" d="M375.146,290.844
							C334.819,276.248,364.164,268.778,375.146,290.844L375.146,290.844z"/>
					</g>
					<path d="M355.434,246.514c-0.215-0.353-0.104-0.813,0.249-1.028c0.353-0.215,0.813-0.104,1.028,0.249
						c11.612,19.064,19.047,41.911,23.899,65.92c4.845,23.976,7.114,49.104,8.395,72.774c0.021,0.413-0.296,0.764-0.709,0.785
						c-0.413,0.021-0.764-0.296-0.785-0.709c-1.278-23.616-3.539-48.676-8.366-72.557
						C374.326,288.099,366.948,265.417,355.434,246.514L355.434,246.514z"/>
				</g>
				<g>
					<g>
						<path style="fill-rule:evenodd;clip-rule:evenodd;fill:#F26E3F;" d="M415.425,299.107
							C421.697,253.855,400.085,277.8,415.425,299.107L415.425,299.107z"/>
						<path style="fill-rule:evenodd;clip-rule:evenodd;fill:#F26E3F;" d="M411.22,310.735
							C407.826,265.177,391.738,293.134,411.22,310.735L411.22,310.735z"/>
						<path style="fill-rule:evenodd;clip-rule:evenodd;fill:#F26E3F;" d="M421.337,286.174
							C429.547,241.234,406.926,264.227,421.337,286.174L421.337,286.174z"/>
						<path style="fill-rule:evenodd;clip-rule:evenodd;fill:#F26E3F;" d="M425.605,278.579
							C458.3,246.672,426.547,252.341,425.605,278.579L425.605,278.579z"/>
						<path style="fill-rule:evenodd;clip-rule:evenodd;fill:#ED7C53;" d="M423.716,281.79
							C469.391,282.705,443.075,264.053,423.716,281.79L423.716,281.79z"/>
						<path style="fill-rule:evenodd;clip-rule:evenodd;fill:#F26E3F;" d="M418.596,291.767
							C463.908,297.585,439.748,276.213,418.596,291.767L418.596,291.767z"/>
						<path style="fill-rule:evenodd;clip-rule:evenodd;fill:#F26E3F;" d="M413.775,303.377
							C459.419,301.439,431.99,284.466,413.775,303.377L413.775,303.377z"/>
						<path style="fill-rule:evenodd;clip-rule:evenodd;fill:#F26E3F;" d="M405.604,331.96
							C411.875,286.708,390.263,310.653,405.604,331.96L405.604,331.96z"/>
						<path style="fill-rule:evenodd;clip-rule:evenodd;fill:#F26E3F;" d="M408.65,318.333
							C444.498,305.358,418.413,298.717,408.65,318.333L408.65,318.333z"/>
					</g>
					<path d="M424.966,278.19c0.215-0.353,0.676-0.464,1.028-0.249c0.353,0.215,0.464,0.676,0.249,1.028
						c-8.888,14.591-15.002,31.723-19.263,49.87c-4.267,18.174-6.673,37.367-8.142,56.051c-0.032,0.413-0.393,0.721-0.806,0.688
						c-0.413-0.032-0.721-0.393-0.689-0.806c1.474-18.747,3.89-38.013,8.177-56.273C409.815,310.212,415.986,292.932,424.966,278.19
						L424.966,278.19z"/>
				</g>
				<g>
					<g>
						<path style="fill-rule:evenodd;clip-rule:evenodd;fill:#ED7C53;" d="M399.404,261.358c-6.79-18.691,0.516-32.921,7.698-36.642
							C411.208,232.358,411.437,250.888,399.404,261.358L399.404,261.358z"/>
						<path style="fill-rule:evenodd;clip-rule:evenodd;fill:#F26E3F;" d="M395.381,288.761
							c-13.812-14.307-12.933-30.278-7.889-36.601C394.353,257.467,402.108,274.298,395.381,288.761L395.381,288.761z"/>
						<path style="fill-rule:evenodd;clip-rule:evenodd;fill:#EBC78D;" d="M392.664,315.475
							c-0.979-19.862,9.412-34.691,17.371-36.13C414.401,290.888,407.249,309.016,392.664,315.475L392.664,315.475z"/>
					</g>
					<path d="M399.143,258.39c0.068-0.408,0.454-0.683,0.861-0.615c0.408,0.068,0.683,0.454,0.615,0.861
						c-3.046,17.997-5.672,36.805-7.218,57.018c-1.545,20.212-2.01,41.823-0.733,65.426c0.021,0.413-0.296,0.764-0.709,0.785
						c-0.413,0.021-0.764-0.297-0.785-0.709c-1.282-23.683-0.816-45.354,0.733-65.614
						C393.457,295.285,396.09,276.433,399.143,258.39L399.143,258.39z"/>
				</g>
			</g>
			<polygon style="fill-rule:evenodd;clip-rule:evenodd;fill:#ED7C53;" points="381.154,339.907 405.964,339.907 411.652,428.327 
				368.78,428.664 381.154,339.907 			"/>
		</g>
		<g>
			<g>
				<g>
					<g>
						<g>
							<path d="M227.949,165.358c20.589-12.774,67.528,53.1,30.4,91.176c-8.258,8.469-10.705,3.287-21.506,5.07
								c-6.083,1.004-8.563-11.837-35.927-3.793c-17.988,5.288-15.356-19.396-40.873-13.64
								C104.334,256.737,179.348,161.86,227.949,165.358L227.949,165.358z"/>
							<path style="fill-rule:evenodd;clip-rule:evenodd;" d="M232.459,165.193c-4.46,7.727-20.071,6.26-27.376-2.155
								c-1.579-10.354,4.407-22.586,19.336-23.309C231.793,143.227,236.162,158.781,232.459,165.193L232.459,165.193z"/>
						</g>
						<g>
							<g>
								<path style="fill:#FFF8F5;" d="M240.337,219.411c0.609-3.052,1.897-5.463,3.525-7.038c2.384-2.304,5.537-2.911,8.441-1.319
									c1.706,0.935,3.285,2.669,4.55,5.295c-1.113,1.188-2.352,1.661-3.684,1.72c-2.921-5.407-7.411-3.781-8.756,1.659
									C242.952,220.107,241.597,219.894,240.337,219.411L240.337,219.411L240.337,219.411z"/>
								<path style="fill:#EBC78D;" d="M241.095,216.75c0.688-1.813,1.647-3.292,2.768-4.376c2.384-2.304,5.537-2.911,8.441-1.319
									c1.013,0.555,1.981,1.392,2.865,2.529c-1.338,0.679-2.779,1.275-4.305,1.766c-1.766-1.152-3.65-0.618-4.993,1.153
									C244.223,216.736,242.618,216.815,241.095,216.75L241.095,216.75z"/>
							</g>
							<g>
								<path style="fill-rule:evenodd;clip-rule:evenodd;fill:#F26E3F;" d="M232.771,213.862
									c-2.322-3.056-13.365-6.416-15.283-4.911c-0.52,10.504-2.604,24.352-4.786,29.725c5.898,1.883,17.591,1.202,22.702-0.126
									C232.682,233.457,232.244,217.761,232.771,213.862L232.771,213.862z"/>
								<g>
									<g>
										<path style="fill-rule:evenodd;clip-rule:evenodd;fill:#F26E3F;" d="M244.042,194.052
											c2.907-0.804,5.968,1.087,6.835,4.224c0.868,3.137-0.786,6.332-3.693,7.136c-2.908,0.804-5.968-1.087-6.835-4.224
											C239.481,198.051,241.134,194.856,244.042,194.052L244.042,194.052z"/>
										<g>
											<path style="fill-rule:evenodd;clip-rule:evenodd;fill:#ED7C53;" d="M217.488,208.951
												c-11.307,5.944-15.258-16.272-0.949-10.377c3.586-5.556,10.147-6.607,10.757-16.668
												c5.313-0.369,10.399,0.253,15.128,2.444c11.413,15.223,4.785,33.675-5.378,37.098
												C231.021,223.476,224.368,218.334,217.488,208.951L217.488,208.951z"/>
											<path style="fill-rule:evenodd;clip-rule:evenodd;fill:#F26E3F;" d="M226.705,185.672
												c0.299-1.101,0.505-2.343,0.591-3.767c5.313-0.37,10.399,0.253,15.128,2.444c0.247,0.33,0.483,0.662,0.714,0.994
												L226.705,185.672L226.705,185.672z"/>
										</g>
									</g>
									<g>
										<g>
											<path d="M210.535,202.786c-0.356,0.21-0.815,0.092-1.025-0.264c-0.21-0.356-0.092-0.815,0.264-1.025
												c0.134-0.079,0.274-0.155,0.42-0.225c1.005-0.488,2.098-0.647,3.146-0.358c1.041,0.287,2.009,1.008,2.76,2.277
												c0.092,0.156,0.183,0.324,0.272,0.504c0.124,0.222,0.132,0.502-0.003,0.738c-0.205,0.359-0.663,0.484-1.022,0.278
												c-0.446-0.255-0.866-0.427-1.257-0.525c-0.395-0.099-0.762-0.125-1.098-0.087c-0.411,0.045-0.781-0.251-0.826-0.662
												c-0.045-0.411,0.251-0.781,0.662-0.826c0.221-0.025,0.447-0.032,0.68-0.021c-0.185-0.105-0.374-0.183-0.566-0.235
												c-0.675-0.186-1.406-0.071-2.097,0.265C210.743,202.668,210.64,202.723,210.535,202.786L210.535,202.786z"/>
											<path d="M216.855,209.349c-0.22-0.349-0.115-0.811,0.234-1.031c0.35-0.22,0.811-0.115,1.031,0.234
												c1.163,1.849,2.57,3.751,4.269,5.561c1.697,1.808,3.684,3.524,6.009,5.003c0.348,0.222,0.45,0.684,0.229,1.031
												c-0.222,0.348-0.683,0.45-1.031,0.229c-2.444-1.555-4.524-3.35-6.296-5.238
												C219.53,213.253,218.065,211.274,216.855,209.349L216.855,209.349z"/>
										</g>
										<g>
											<path d="M236.026,206.6c-0.413-0.023-0.729-0.376-0.706-0.788c0.023-0.412,0.376-0.729,0.788-0.706
												c1.067,0.06,1.661,0.571,1.905,1.232c0.157,0.424,0.147,0.898,0.012,1.34c-0.127,0.415-0.367,0.81-0.682,1.105
												c-0.579,0.545-1.392,0.787-2.245,0.34c-0.366-0.191-0.507-0.642-0.316-1.008c0.191-0.366,0.642-0.507,1.008-0.316
												c0.188,0.098,0.382,0.031,0.528-0.106c0.128-0.12,0.226-0.281,0.277-0.449c0.043-0.142,0.052-0.282,0.011-0.39
												C236.558,206.724,236.384,206.62,236.026,206.6L236.026,206.6z"/>
											<g>
												<path d="M238.187,194.437c-0.393,0.128-0.816-0.087-0.943-0.48c-0.128-0.393,0.087-0.816,0.48-0.943
													c0.981-0.319,2.592-0.373,4.125-0.26c1.7,0.125,3.368,0.469,4.037,0.896c0.348,0.222,0.45,0.683,0.229,1.031
													c-0.222,0.348-0.683,0.45-1.031,0.229c-0.464-0.297-1.853-0.553-3.34-0.662
													C240.374,194.146,238.973,194.181,238.187,194.437L238.187,194.437z"/>
												<path d="M223.576,197.512c-0.358,0.207-0.815,0.085-1.023-0.272c-0.207-0.358-0.085-0.816,0.272-1.023
													c1.284-0.745,2.575-1.37,3.876-1.816c1.319-0.451,2.652-0.718,4.003-0.738c0.413-0.005,0.751,0.326,0.756,0.738
													c0.005,0.413-0.326,0.751-0.738,0.756c-1.175,0.018-2.355,0.257-3.54,0.662
													C225.981,196.231,224.779,196.814,223.576,197.512L223.576,197.512z"/>
											</g>
											<path d="M228.167,212.128c-0.286-0.298-0.277-0.771,0.021-1.058s0.771-0.277,1.058,0.021
												c0.778,0.805,2.096,1.522,3.783,1.821c1.42,0.251,3.09,0.2,4.909-0.349c0.396-0.118,0.814,0.107,0.932,0.504
												c0.118,0.396-0.108,0.813-0.504,0.932c-2.061,0.622-3.966,0.678-5.594,0.39
												C230.754,214.031,229.144,213.139,228.167,212.128L228.167,212.128z"/>
											<g>
												<g>
													<g>
														<path style="fill-rule:evenodd;clip-rule:evenodd;fill:#FFFFFF;" d="M234.237,201.368
															c-3.369-2.837-8.993-2.743-11.395,1.036C225.032,204.863,231.095,205.359,234.237,201.368L234.237,201.368z"/>
														<path style="fill-rule:evenodd;clip-rule:evenodd;" d="M230.073,199.494c-1.873-0.296-3.808,0.02-5.345,1.013
															c-0.186,0.414-0.289,0.873-0.289,1.356c0,0.739,0.242,1.421,0.65,1.972c1.527,0.548,3.428,0.654,5.222,0.14
															c0.474-0.574,0.759-1.309,0.759-2.111C231.069,200.935,230.688,200.096,230.073,199.494L230.073,199.494z"/>
													</g>
													<g>
														<path d="M221.978,201.387c0.411-0.05,0.785,0.242,0.835,0.653c0.05,0.411-0.242,0.785-0.653,0.835
															c-0.661,0.081-1.239,0.008-1.748-0.162c-0.503-0.168-0.927-0.43-1.293-0.73c-0.319-0.262-0.365-0.733-0.103-1.052
															c0.262-0.319,0.733-0.365,1.052-0.103c0.237,0.195,0.507,0.363,0.819,0.467
															C221.192,201.397,221.551,201.439,221.978,201.387L221.978,201.387z"/>
														<path d="M223.257,199.726c0.412,0.031,0.722,0.39,0.691,0.803c-0.031,0.413-0.39,0.722-0.803,0.691
															c-0.457-0.034-0.869-0.148-1.242-0.314l-0.003-0.001l0,0.001c-0.361-0.16-0.677-0.369-0.96-0.601
															c-0.319-0.262-0.365-0.733-0.102-1.052c0.262-0.319,0.733-0.365,1.052-0.103c0.185,0.152,0.39,0.288,0.62,0.39
															l-0.001,0.001C222.727,199.639,222.973,199.705,223.257,199.726L223.257,199.726z"/>
													</g>
												</g>
												<g>
													<g>
														<path style="fill-rule:evenodd;clip-rule:evenodd;fill:#FFFFFF;" d="M236.638,201.611
															c2.138-3.216,6.894-4.52,9.845-1.93C245.244,202.288,240.263,204.197,236.638,201.611L236.638,201.611z"/>
														<path style="fill-rule:evenodd;clip-rule:evenodd;" d="M237.704,200.354c1.58-1.484,3.792-2.268,5.841-1.994
															c0.49,0.578,0.786,1.326,0.786,2.143c0,0.552-0.135,1.073-0.374,1.53c-1.603,0.799-3.67,1.101-5.596,0.456
															c-0.415-0.554-0.661-1.242-0.661-1.987C237.7,200.453,237.702,200.403,237.704,200.354L237.704,200.354z"/>
													</g>
													<g>
														<path d="M247.111,199.515c-0.401,0.102-0.809-0.141-0.911-0.542c-0.102-0.401,0.141-0.809,0.542-0.911
															c0.353-0.09,0.621-0.231,0.827-0.403c0.208-0.173,0.368-0.388,0.497-0.617c0.202-0.361,0.659-0.489,1.02-0.287
															c0.361,0.202,0.489,0.659,0.287,1.02c-0.207,0.368-0.477,0.724-0.848,1.033
															C248.151,199.117,247.69,199.368,247.111,199.515L247.111,199.515z"/>
														<path d="M245.796,198.468c-0.372,0.178-0.818,0.021-0.996-0.352c-0.178-0.372-0.02-0.818,0.352-0.996
															c0.21-0.1,0.382-0.229,0.526-0.374c0.145-0.146,0.264-0.316,0.365-0.495c0.202-0.361,0.659-0.489,1.02-0.287
															c0.361,0.202,0.489,0.659,0.287,1.02c-0.159,0.283-0.357,0.561-0.611,0.817
															C246.484,198.058,246.175,198.287,245.796,198.468L245.796,198.468z"/>
													</g>
												</g>
											</g>
											<g>
												<path style="fill-rule:evenodd;clip-rule:evenodd;fill:#F26E3F;" d="M226.127,206.838
													c0.987-0.256,1.995,0.338,2.25,1.325c0.256,0.987-0.337,1.995-1.325,2.25c-0.987,0.256-1.995-0.338-2.25-1.325
													C224.546,208.101,225.139,207.094,226.127,206.838L226.127,206.838z"/>
												<path style="fill-rule:evenodd;clip-rule:evenodd;fill:#F26E3F;" d="M243.22,204.897
													c0.987-0.256,1.995,0.338,2.25,1.325c0.256,0.987-0.337,1.995-1.325,2.25c-0.987,0.256-1.995-0.338-2.25-1.325
													C241.639,206.16,242.232,205.153,243.22,204.897L243.22,204.897z"/>
											</g>
										</g>
									</g>
								</g>
							</g>
							<g>
								<path style="fill:#FFF8F5;" d="M199.302,219.178c2.051-2.878,4.508-4.775,6.927-5.647c3.541-1.276,7.089-0.438,9.355,2.563
									c1.332,1.763,2.16,4.293,2.248,7.602c-1.705,0.712-3.209,0.626-4.616,0.066c-0.508-6.959-5.915-7.365-9.84-2.357
									C201.686,221.115,200.382,220.264,199.302,219.178L199.302,219.178L199.302,219.178z"/>
								<path style="fill:#EBC78D;" d="M201.326,216.774c1.556-1.557,3.239-2.643,4.903-3.243c3.541-1.276,7.089-0.438,9.355,2.563
									c0.791,1.046,1.404,2.363,1.79,3.953c-1.701,0.081-3.471,0.027-5.281-0.174c-1.292-2.015-3.492-2.338-5.708-1.13
									C204.571,218.215,202.873,217.55,201.326,216.774L201.326,216.774z"/>
							</g>
						</g>
					</g>
					<g>
						<g>
							<path style="fill-rule:evenodd;clip-rule:evenodd;fill:#EBC78D;" d="M228.748,393.719l-15.283-0.337l-1.069,42.811
								c13.483,5.307,93.606,7.166,100.913-7.562C256.136,414.816,262.085,368.668,228.748,393.719L228.748,393.719z"/>
							<path style="fill-rule:evenodd;clip-rule:evenodd;" d="M291.733,437.618c11.087-1.799,19.442-4.684,21.577-8.987
								c-8.997-2.174-16.429-5.15-22.699-8.521c-0.677,2.277-1.044,4.71-1.044,7.24C289.567,431.04,290.348,434.526,291.733,437.618
								L291.733,437.618z"/>
						</g>
						<g>
							<g>
								<path style="fill-rule:evenodd;clip-rule:evenodd;fill:#FCCAB8;" d="M241.294,435.477l-1.069-42.811
									c4.504-2.533,59.853-21.477,61.347-25.021c-4.246-8.727-5.383-20.247-33.734-27.549
									C409.464,289.458,402.722,426.471,241.294,435.477L241.294,435.477z"/>
								<path style="fill-rule:evenodd;clip-rule:evenodd;fill:#FFD7C9;" d="M240.354,397.831l-0.129-5.165
									c4.504-2.533,59.853-21.477,61.347-25.021c-4.246-8.727-5.383-20.247-33.734-27.549
									c50.369-18.009,81.952-12.273,94.504,2.988C345.529,371.742,298.295,393.431,240.354,397.831L240.354,397.831z"/>
							</g>
							<g>
								<path style="fill-rule:evenodd;clip-rule:evenodd;fill:#FCCAB8;" d="M215.49,433.231
									c8.949-10.715,62.444-37.979,59.134-54.595c-4.912-24.658-72.578-37.424-91.553-31.478
									c-106.295-37.995-141.342,53.427-42.69,80.757C160.282,433.428,184.031,434.318,215.49,433.231L215.49,433.231z"/>
								<path style="fill-rule:evenodd;clip-rule:evenodd;fill:#FFD7C9;" d="M266.133,394.635c5.835-5.773,9.425-11.31,8.491-15.999
									c-4.912-24.658-72.578-37.424-91.553-31.478c-49.266-17.61-83.21-7.413-95.648,11.312
									c25.765,23.982,74.839,40.185,131.152,40.185C235.197,398.656,251.185,397.241,266.133,394.635L266.133,394.635z"/>
							</g>
						</g>
						<g>
							<path style="fill-rule:evenodd;clip-rule:evenodd;fill:#F5D7A6;" d="M224.942,393.003l15.283-0.337l1.069,42.811
								c-13.484,5.307-93.605,7.166-100.913-7.562C197.554,414.1,191.606,367.953,224.942,393.003L224.942,393.003z"/>
							<path style="fill-rule:evenodd;clip-rule:evenodd;" d="M161.957,436.902c-11.087-1.799-19.442-4.684-21.577-8.987
								c8.997-2.174,16.429-5.15,22.699-8.521c0.676,2.277,1.044,4.71,1.044,7.24C164.124,430.324,163.343,433.81,161.957,436.902
								L161.957,436.902z"/>
							<path style="fill-rule:evenodd;clip-rule:evenodd;" d="M188.058,399.568c11.917-12.359,18.293-20.535,36.883-6.566
								c-4.313,6.351-12.522,10.641-21.941,10.641C197.404,403.643,192.236,402.128,188.058,399.568L188.058,399.568z"/>
						</g>
						<g>
							<path d="M240.506,393.36c-0.383,0.155-0.82-0.03-0.976-0.413c-0.155-0.384,0.03-0.82,0.413-0.976l68.798-28.06
								c0.383-0.155,0.82,0.03,0.976,0.413c0.155,0.384-0.03,0.82-0.413,0.976L240.506,393.36L240.506,393.36z"/>
							<path d="M141.668,368c-0.385-0.149-0.577-0.582-0.428-0.967c0.149-0.385,0.582-0.577,0.967-0.428l56.774,22.021
								c0.385,0.149,0.577,0.582,0.428,0.967c-0.149,0.385-0.582,0.577-0.967,0.428L141.668,368L141.668,368z"/>
						</g>
					</g>
					<g>
						<path style="fill-rule:evenodd;clip-rule:evenodd;fill:#FCCAB8;" d="M249.043,251.318c3.648-5.164,1.653-13.217,0.237-16.392
							c-17.12-0.818-33.253-1.574-46.912-3.449c-2.74,3.631-4.392,15.109-1.29,21.353c-32.007,5.276-130.981,92.422-35.312,114.189
							C335.003,419.112,378.572,306.173,249.043,251.318L249.043,251.318z"/>
						<g>
							<path d="M204.48,253.891c-0.374-0.175-0.535-0.619-0.36-0.993c0.175-0.374,0.619-0.535,0.993-0.36
								c2.557,1.196,8.139,2.233,13.878,2.834c5.84,0.612,11.801,0.765,14.872,0.166c0.406-0.078,0.798,0.189,0.876,0.595
								c0.078,0.406-0.189,0.798-0.595,0.876c-3.21,0.625-9.338,0.476-15.306-0.148C212.959,256.245,207.194,255.16,204.48,253.891
								L204.48,253.891z"/>
							<path d="M182.573,280.547c0.063-0.409,0.446-0.69,0.855-0.627c0.409,0.063,0.69,0.446,0.627,0.855l-9.056,58.71
								c-0.063,0.409-0.446,0.69-0.855,0.627c-0.325-0.05-0.569-0.302-0.624-0.608c-0.171-0.614-0.376-1.223-0.613-1.826
								c-2.277-5.79-7.303-10.087-13.207-12.546c-5.933-2.472-12.732-3.086-18.518-1.498c-0.732,0.201-1.458,0.442-2.174,0.723
								c-0.385,0.15-0.819-0.04-0.97-0.425c-0.15-0.385,0.04-0.819,0.425-0.97c0.744-0.293,1.521-0.549,2.326-0.77
								c6.107-1.676,13.261-1.037,19.485,1.556c5.982,2.492,11.125,6.793,13.693,12.587L182.573,280.547L182.573,280.547z"/>
							<path d="M262.759,285.515c-0.084-0.404,0.176-0.801,0.58-0.885c0.404-0.084,0.801,0.176,0.885,0.58l9.524,45.892
								c0.084,0.404-0.176,0.801-0.58,0.885c-0.404,0.084-0.801-0.176-0.885-0.58L262.759,285.515L262.759,285.515z"/>
						</g>
					</g>
				</g>
				<g>
					<g>
						<path style="fill-rule:evenodd;clip-rule:evenodd;fill:#F26E3F;" d="M165.766,367.019l9.312-25.721l25.232,5.897
							l30.185,18.494c-1.663,2.882-2.832,5.32-7.089,5.536c2.195,2.102,6.076,2.969,7.55,4.398
							c-2.041,4.897-10.619,3.505-11.831,2.888c-7.695,8.199-21.29-1.46-26.471-3.244
							C189.517,375.58,171.598,373.738,165.766,367.019L165.766,367.019z"/>
						<g>
							<path d="M197.688,365.697c-0.348-0.222-0.45-0.683-0.229-1.031c0.222-0.348,0.683-0.45,1.031-0.229l21.036,13.444
								c0.348,0.222,0.45,0.683,0.229,1.031s-0.683,0.45-1.031,0.228L197.688,365.697L197.688,365.697z"/>
							<path d="M200.857,357.589c-0.332-0.247-0.4-0.717-0.152-1.049c0.247-0.332,0.717-0.4,1.049-0.152
								c2.452,1.833,8.442,5.72,14.413,9.472c6.888,4.329,13.737,8.474,15.094,9.081c0.377,0.168,0.546,0.61,0.378,0.987
								c-0.168,0.377-0.61,0.546-0.987,0.378c-1.419-0.634-8.347-4.822-15.282-9.181C209.353,363.344,203.32,359.43,200.857,357.589
								L200.857,357.589z"/>
							<path d="M204.795,350.82c-0.353-0.215-0.464-0.676-0.249-1.028c0.215-0.353,0.676-0.464,1.028-0.249l25.31,15.508
								c0.353,0.215,0.464,0.676,0.249,1.028c-0.215,0.353-0.676,0.464-1.028,0.249L204.795,350.82L204.795,350.82z"/>
						</g>
					</g>
					<g>
						<path style="fill-rule:evenodd;clip-rule:evenodd;fill:#F26E3F;" d="M272.462,252.5c2.861,1.599,4.135,4.764,2.846,7.071
							c-1.289,2.307-4.653,2.881-7.514,1.283c-2.861-1.599-4.135-4.764-2.846-7.071C266.237,251.476,269.601,250.902,272.462,252.5
							L272.462,252.5z"/>
						<g>
							<g>
								<path style="fill-rule:evenodd;clip-rule:evenodd;fill:#EBC78D;" d="M228.883,247.621h37.07c0,1.293-0.04,2.543-0.116,3.751
									c2.55,0.392,4.832,1.634,6.572,3.439c2.109,2.188,3.414,5.205,3.414,8.529c0,3.324-1.305,6.341-3.414,8.529
									c-2.126,2.207-5.065,3.571-8.311,3.571c-2.496,0-4.81-0.807-6.713-2.183C246.438,283.568,228.883,275.022,228.883,247.621
									L228.883,247.621z M265.507,254.832c-0.879,6.808-3.003,12.078-5.809,15.817c1.273,0.837,2.782,1.323,4.4,1.323
									c2.272,0,4.329-0.956,5.818-2.501c1.507-1.563,2.439-3.73,2.439-6.131c0-2.4-0.932-4.568-2.439-6.131
									C268.742,255.99,267.215,255.138,265.507,254.832L265.507,254.832z"/>
								<path d="M228.883,246.871h37.07c0.414,0,0.75,0.336,0.75,0.75c0,0.599-0.011,1.243-0.033,1.931
									c-0.013,0.415-0.029,0.815-0.049,1.202c1.092,0.232,2.135,0.614,3.108,1.123c1.198,0.626,2.283,1.445,3.218,2.415
									c1.141,1.184,2.06,2.595,2.686,4.161c0.604,1.51,0.938,3.161,0.938,4.886c0,1.725-0.334,3.376-0.938,4.886
									c-0.627,1.566-1.546,2.977-2.686,4.161c-1.154,1.197-2.531,2.161-4.059,2.818c-1.477,0.635-3.095,0.985-4.791,0.985
									c-1.304,0-2.564-0.208-3.751-0.594c-1.03-0.335-2.001-0.803-2.896-1.386c-2.14,1.891-4.508,3.116-6.948,3.674
									c-3.297,0.755-6.711,0.291-9.855-1.391c-3.108-1.663-5.945-4.514-8.128-8.553c-2.684-4.966-4.387-11.741-4.387-20.318
									C228.133,247.207,228.469,246.871,228.883,246.871L228.883,246.871z M265.2,248.371h-35.562
									c0.095,7.959,1.706,14.243,4.201,18.859c2.037,3.77,4.658,6.417,7.512,7.944c2.819,1.508,5.873,1.925,8.818,1.25
									c2.346-0.537,4.631-1.767,6.68-3.691c0.255-0.262,0.671-0.305,0.976-0.084c0.906,0.655,1.91,1.172,2.985,1.522
									c1.035,0.337,2.14,0.518,3.288,0.518c1.488,0,2.906-0.307,4.199-0.862c1.348-0.579,2.56-1.427,3.573-2.478
									c1.008-1.046,1.821-2.295,2.376-3.681c0.533-1.331,0.827-2.794,0.827-4.33s-0.294-2.998-0.827-4.33
									c-0.555-1.386-1.367-2.634-2.376-3.681c-0.827-0.858-1.782-1.579-2.831-2.128c-1.019-0.533-2.134-0.907-3.313-1.088l0-0.001
									c-0.38-0.057-0.66-0.396-0.636-0.787c0.039-0.619,0.068-1.227,0.087-1.82C265.188,249.152,265.196,248.775,265.2,248.371
									L265.2,248.371z M266.135,255.747c-0.443,3.031-1.132,5.75-2.016,8.158c-0.917,2.496-2.047,4.668-3.334,6.515
									c0.392,0.201,0.804,0.368,1.234,0.498c0.658,0.198,1.355,0.304,2.079,0.304c1.01,0,1.973-0.208,2.85-0.585
									c0.917-0.394,1.74-0.97,2.429-1.685c0.702-0.729,1.268-1.6,1.653-2.568c0.37-0.931,0.575-1.96,0.575-3.045
									c0-1.085-0.204-2.114-0.575-3.045c-0.385-0.968-0.95-1.839-1.653-2.568c-0.54-0.56-1.162-1.035-1.847-1.404
									C267.088,256.084,266.621,255.891,266.135,255.747L266.135,255.747z M262.713,263.39c0.93-2.532,1.635-5.416,2.053-8.652
									l0.006-0.038c0.073-0.406,0.461-0.676,0.867-0.604c0.926,0.166,1.8,0.476,2.6,0.908c0.82,0.442,1.567,1.013,2.216,1.685
									c0.833,0.864,1.504,1.9,1.963,3.054c0.442,1.112,0.686,2.326,0.686,3.596c0,1.27-0.244,2.484-0.686,3.596
									c-0.459,1.154-1.131,2.19-1.963,3.054c-0.829,0.86-1.818,1.553-2.915,2.024c-1.061,0.456-2.224,0.708-3.442,0.708
									c-0.868,0-1.709-0.128-2.506-0.368c-0.811-0.244-1.579-0.606-2.284-1.067c-0.02-0.012-0.039-0.025-0.058-0.039
									c-0.33-0.247-0.397-0.716-0.149-1.046C260.502,268.334,261.731,266.064,262.713,263.39L262.713,263.39z"/>
							</g>
							<path style="fill:#FFFFFF;" d="M242.672,243.676c-0.186,0.369-0.636,0.517-1.005,0.331c-0.369-0.186-0.517-0.636-0.331-1.005
								c1.471-2.922,0.696-5.598-0.1-8.346c-0.763-2.637-1.544-5.334-0.643-8.485c0.113-0.398,0.528-0.629,0.926-0.516
								c0.398,0.113,0.629,0.528,0.516,0.926c-0.785,2.745-0.066,5.23,0.637,7.659C243.551,237.275,244.406,240.231,242.672,243.676
								L242.672,243.676z"/>
							<path style="fill:#FFFFFF;" d="M247.753,245.275c-0.186,0.369-0.636,0.517-1.005,0.331c-0.369-0.186-0.517-0.636-0.331-1.005
								c1.471-2.922,0.696-5.598-0.1-8.346c-0.763-2.637-1.544-5.334-0.643-8.485c0.113-0.398,0.528-0.629,0.926-0.516
								c0.398,0.113,0.629,0.528,0.516,0.926c-0.785,2.745-0.066,5.23,0.637,7.659C248.631,238.874,249.487,241.829,247.753,245.275
								L247.753,245.275z"/>
							<path style="fill:#FFFFFF;" d="M252.986,244.902c-0.186,0.369-0.636,0.517-1.005,0.331c-0.369-0.186-0.517-0.636-0.331-1.005
								c1.471-2.922,0.696-5.598-0.1-8.346c-0.763-2.637-1.544-5.334-0.643-8.485c0.113-0.398,0.528-0.629,0.926-0.516
								c0.398,0.113,0.629,0.528,0.516,0.926c-0.785,2.745-0.066,5.23,0.637,7.659C253.865,238.501,254.72,241.456,252.986,244.902
								L252.986,244.902z"/>
						</g>
						<g>
							<path style="fill-rule:evenodd;clip-rule:evenodd;fill:#ED7C53;" d="M287.629,257.663c-4.485-2.18-16.672-3.194-23.428-2.025
								c-3.758,0.65-1.878,7.991,0.284,8.624c-1.61,2.451-1.677,6.653,0.506,9.802c-1.222,2.303-0.647,6.983,1.547,9.01
								c2.297,7.96,6.254,8.27,10.679,8.598l-0.23,72.934c43.015-0.979,33.56-50.842,19.531-85.185L287.629,257.663L287.629,257.663
								z"/>
							<path d="M264.547,265.009c-0.413,0.034-0.775-0.273-0.809-0.686c-0.034-0.412,0.273-0.775,0.686-0.808
								c2.321-0.197,5.249-0.084,8.091,0.177c3.653,0.336,7.165,0.917,9.058,1.396c0.401,0.1,0.645,0.507,0.545,0.908
								s-0.507,0.645-0.908,0.545c-1.845-0.467-5.268-1.034-8.829-1.361C269.628,264.928,266.794,264.819,264.547,265.009
								L264.547,265.009z"/>
							<path d="M265.05,274.785c-0.413,0.034-0.775-0.273-0.809-0.686c-0.034-0.413,0.273-0.775,0.685-0.809
								c2.278-0.193,4.987-0.079,7.605,0.183c3.49,0.348,6.818,0.958,8.74,1.445c0.401,0.1,0.645,0.507,0.545,0.908
								c-0.1,0.401-0.507,0.645-0.908,0.545c-1.876-0.475-5.123-1.071-8.523-1.41C269.858,274.709,267.245,274.599,265.05,274.785
								L265.05,274.785z"/>
							<path d="M266.533,283.815c-0.413-0.002-0.746-0.337-0.744-0.75c0.002-0.412,0.337-0.746,0.75-0.744
								c2.514,0.015,5.191,0.201,7.661,0.482c2.737,0.312,5.238,0.741,7.004,1.189c0.401,0.1,0.645,0.507,0.545,0.908
								c-0.1,0.401-0.507,0.645-0.908,0.545c-1.709-0.433-4.139-0.85-6.805-1.154C271.594,284.013,268.969,283.83,266.533,283.815
								L266.533,283.815z"/>
						</g>
					</g>
				</g>
			</g>
			<g>
				<polygon style="fill-rule:evenodd;clip-rule:evenodd;fill:#FFFFFF;" points="256.476,301.036 363.919,301.036 326.2,381.131 
					218.757,381.131 256.476,301.036 				"/>
				<path d="M256.476,300.287H365.1l-38.425,81.594H217.576c12.808-27.199,25.615-54.397,38.425-81.594H256.476L256.476,300.287z
					 M362.739,301.786h-105.79l-37.012,78.595h105.79L362.739,301.786L362.739,301.786z"/>
				<path style="fill:#1A1A1A;" d="M188.152,381.881c-0.414,0-0.75-0.336-0.75-0.75c0-0.414,0.336-0.75,0.75-0.75H326.2
					c0.414,0,0.75,0.336,0.75,0.75c0,0.414-0.336,0.75-0.75,0.75H188.152L188.152,381.881z"/>
			</g>
		</g>
	</g>
</g>
</svg>
